<?xml version="1.0" encoding="utf-8"?>
<!-- Generator: Adobe Illustrator 24.2.3, SVG Export Plug-In . SVG Version: 6.00 Build 0)  -->
<svg version="1.1" id="Layer_1" xmlns="http://www.w3.org/2000/svg" xmlns:xlink="http://www.w3.org/1999/xlink" x="0px" y="0px"
	 viewBox="0 0 403.1 324.7" style="enable-background:new 0 0 403.1 324.7;" xml:space="preserve">
<style type="text/css">
	.st0{fill:#202F99;}
	.st1{opacity:0.7;fill:#FFFFFF;enable-background:new    ;}
	.st2{opacity:0.4;fill:#FFFFFF;enable-background:new    ;}
	.st3{fill:#FFFFFF;stroke:#263238;stroke-miterlimit:10;}
	.st4{fill:#202F99;stroke:#263238;stroke-miterlimit:10;}
	.st5{fill:none;stroke:#263238;stroke-linecap:round;stroke-linejoin:round;}
	.st6{fill:#263238;}
	.st7{fill:#263238;stroke:#263238;stroke-linecap:round;stroke-linejoin:round;}
	.st8{opacity:0.47;}
	.st9{fill:#FFFFFF;}
	.st10{fill:#FFFFFF;stroke:#263238;stroke-linecap:round;stroke-linejoin:round;}
	.st11{clip-path:url(#SVGID_2_);}
	.st12{opacity:0.5;fill:#FFFFFF;enable-background:new    ;}
	.st13{clip-path:url(#SVGID_4_);}
	.st14{fill:#BDBDBD;stroke:#263238;stroke-linecap:round;stroke-linejoin:round;}
	.st15{clip-path:url(#SVGID_6_);}
	.st16{opacity:0.26;enable-background:new    ;}
	.st17{fill:none;stroke:#FFFFFF;stroke-linecap:round;stroke-linejoin:round;}
	.st18{clip-path:url(#SVGID_8_);}
	.st19{clip-path:url(#SVGID_10_);}
	.st20{clip-path:url(#SVGID_12_);}
	.st21{opacity:0.42;stroke:#263238;stroke-linecap:round;stroke-linejoin:round;enable-background:new    ;}
	.st22{clip-path:url(#SVGID_14_);}
	.st23{fill:#BDBDBD;}
	.st24{clip-path:url(#SVGID_16_);}
	.st25{clip-path:url(#SVGID_18_);}
	.st26{clip-path:url(#SVGID_20_);}
	.st27{opacity:0.26;}
	.st28{clip-path:url(#SVGID_22_);}
	.st29{clip-path:url(#SVGID_24_);}
	.st30{fill:none;stroke:#263238;stroke-width:2;stroke-linecap:round;stroke-linejoin:round;}
</style>
<g id="freepik--background-simple--inject-11">
	<path class="st0" d="M332.8,47.4c0,0-42.6-47.6-108.6-44S102.8,54.8,56.9,92.3S-0.5,187,27.5,231s70.7,24.4,126.1,52.2
		s66.2,44,127.2,35.8s106.3-80.8,97.9-157.1S332.8,47.4,332.8,47.4z"/>
	<path class="st1" d="M332.8,47.4c0,0-42.6-47.6-108.6-44S102.8,54.8,56.9,92.3S-0.5,187,27.5,231s70.7,24.4,126.1,52.2
		s66.2,44,127.2,35.8s106.3-80.8,97.9-157.1S332.8,47.4,332.8,47.4z"/>
</g>
<g id="freepik--Windows--inject-11">
	<rect x="31.2" y="59.9" class="st0" width="274" height="178"/>
	<rect x="31.2" y="59.9" class="st2" width="274" height="178"/>
	<rect x="131.3" y="121.3" class="st3" width="155.8" height="98.6"/>
	<path class="st4" d="M180.1,109.8l-3-8.6h-48.8v125.9h161.9V109.8H180.1z M287.1,220H131.3v-98.6h155.8L287.1,220z"/>
	<rect x="180.1" y="113.1" class="st3" width="77.4" height="4.7"/>
	<polyline class="st5" points="135,112.3 132.8,114.5 135.1,117 	"/>
	<line class="st5" x1="132.8" y1="114.5" x2="137.8" y2="114.5"/>
	<polyline class="st5" points="147.7,112.3 149.9,114.5 147.6,117 	"/>
	<line class="st5" x1="149.9" y1="114.5" x2="145" y2="114.5"/>
	<path class="st5" d="M160.6,114.2c-0.3-1-1.2-1.7-2.3-1.8c-1.2-0.1-2.3,0.9-2.4,2.1c-0.1,1.2,0.9,2.3,2.1,2.4c0.1,0,0.2,0,0.3,0
		c0.5,0,1-0.2,1.4-0.5"/>
	<polyline class="st5" points="159.1,114.5 160.8,114.5 160.8,112.4 	"/>
	<polygon class="st5" points="172.4,113.7 170.4,112.1 168.4,113.7 168.4,117.4 172.4,117.4 	"/>
	<rect x="169.6" y="114.7" class="st6" width="1.6" height="2.5"/>
	<line class="st5" x1="168.4" y1="113.7" x2="167.2" y2="114.8"/>
	<line class="st5" x1="172.4" y1="113.7" x2="173.5" y2="114.7"/>
	<line class="st5" x1="171.7" y1="105.7" x2="174.8" y2="108.9"/>
	<line class="st5" x1="174.9" y1="105.7" x2="171.6" y2="108.9"/>
	<line class="st5" x1="278.9" y1="114" x2="285.1" y2="114"/>
	<line class="st5" x1="278.9" y1="115.4" x2="285.1" y2="115.4"/>
	<line class="st5" x1="278.9" y1="116.8" x2="285.1" y2="116.8"/>
	<line class="st5" x1="278.9" y1="118.2" x2="285.1" y2="118.2"/>
	<line class="st5" x1="246.3" y1="132.9" x2="254.1" y2="132.9"/>
	<line class="st5" x1="236.2" y1="132.9" x2="243.1" y2="132.9"/>
	<line class="st5" x1="219.4" y1="132.9" x2="233.6" y2="132.9"/>
	<line class="st5" x1="219.4" y1="137.7" x2="254.1" y2="137.7"/>
	<line class="st5" x1="249" y1="142.5" x2="254.1" y2="142.5"/>
	<line class="st5" x1="225" y1="142.5" x2="245.8" y2="142.5"/>
	<line class="st5" x1="219.4" y1="142.5" x2="222.1" y2="142.5"/>
	<line class="st5" x1="219.4" y1="147.3" x2="254.1" y2="147.3"/>
	<rect x="223.7" y="187.1" class="st7" width="7.7" height="23.8"/>
	<rect x="234.8" y="158.9" class="st4" width="7.7" height="51.9"/>
	<rect x="245.8" y="174.4" class="st7" width="7.7" height="36.5"/>
	<rect x="256.9" y="158.9" class="st4" width="7.7" height="51.9"/>
	<rect x="267.9" y="136.3" class="st7" width="7.7" height="74.6"/>
	<rect x="43.5" y="91.3" class="st3" width="155.8" height="98.7"/>
	<path class="st4" d="M92.3,79.8l-3-8.6H40.5v125.9h161.9V79.8H92.3z M199.3,189.9H43.5V91.3h155.8L199.3,189.9z"/>
	<rect x="92.3" y="83.1" class="st3" width="77.4" height="4.7"/>
	<polyline class="st5" points="47.2,82.3 45,84.5 47.3,87 	"/>
	<line class="st5" x1="45" y1="84.5" x2="50" y2="84.5"/>
	<polyline class="st5" points="59.9,82.3 62.1,84.5 59.8,87 	"/>
	<line class="st5" x1="62.1" y1="84.5" x2="57.2" y2="84.5"/>
	<path class="st5" d="M72.8,84.2c-0.3-1-1.2-1.7-2.2-1.8c-1.2,0-2.2,1-2.2,2.2c0,1.2,1,2.2,2.2,2.2l0,0c0.5,0,1-0.2,1.4-0.5"/>
	<polyline class="st5" points="71.3,84.5 73,84.5 73,82.4 	"/>
	<polygon class="st5" points="84.6,83.7 82.6,82.1 80.6,83.7 80.6,87.3 84.6,87.3 	"/>
	<rect x="81.8" y="84.7" class="st6" width="1.6" height="2.5"/>
	<line class="st5" x1="80.6" y1="83.7" x2="79.4" y2="84.8"/>
	<line class="st5" x1="84.6" y1="83.7" x2="85.7" y2="84.7"/>
	<line class="st5" x1="83.9" y1="75.7" x2="87" y2="78.9"/>
	<line class="st5" x1="87.1" y1="75.7" x2="83.8" y2="78.8"/>
	<line class="st5" x1="191.1" y1="84" x2="197.3" y2="84"/>
	<line class="st5" x1="191.1" y1="85.4" x2="197.3" y2="85.4"/>
	<line class="st5" x1="191.1" y1="86.8" x2="197.3" y2="86.8"/>
	<line class="st5" x1="191.1" y1="88.2" x2="197.3" y2="88.2"/>
	<polygon class="st6" points="51.5,180.4 51.5,146.4 62.3,169.3 71.5,165.3 82,173.5 99.7,162 110.6,177.1 118.1,173.3 124.6,177.1 
		132.8,176.2 143.6,178.8 155,177.8 162.2,180.4 	"/>
	<line class="st5" x1="165.6" y1="121.3" x2="177.4" y2="121.3"/>
	<line class="st5" x1="150.3" y1="121.3" x2="160.7" y2="121.3"/>
	<line class="st5" x1="124.9" y1="121.3" x2="146.5" y2="121.3"/>
	<line class="st5" x1="124.9" y1="126.1" x2="177.4" y2="126.1"/>
	<line class="st5" x1="169.7" y1="130.9" x2="177.4" y2="130.9"/>
	<line class="st5" x1="133.4" y1="130.9" x2="164.8" y2="130.9"/>
	<line class="st5" x1="124.9" y1="130.9" x2="129" y2="130.9"/>
	<line class="st5" x1="124.9" y1="135.6" x2="177.4" y2="135.6"/>
	<line class="st5" x1="177.4" y1="143.3" x2="165.6" y2="143.3"/>
	<line class="st5" x1="150.3" y1="143.3" x2="160.7" y2="143.3"/>
	<line class="st5" x1="124.9" y1="143.3" x2="146.5" y2="143.3"/>
	<line class="st5" x1="124.9" y1="148.1" x2="177.4" y2="148.1"/>
	<line class="st5" x1="177.4" y1="152.9" x2="169.7" y2="152.9"/>
	<line class="st5" x1="133.4" y1="152.9" x2="164.8" y2="152.9"/>
	<line class="st5" x1="124.9" y1="152.9" x2="129" y2="152.9"/>
	<line class="st5" x1="124.9" y1="157.6" x2="177.4" y2="157.6"/>
	<path class="st0" d="M65,129.2l-6.2,14c-7.7-3.4-11.2-12.5-7.7-20.2c2.4-5.6,7.9-9.1,14-9.1L65,129.2z"/>
	<g class="st8">
		<path class="st9" d="M65,129.2l-6.2,14c-7.7-3.4-11.2-12.5-7.7-20.2c2.4-5.6,7.9-9.1,14-9.1L65,129.2z"/>
	</g>
	<path class="st6" d="M65,129.2l7.2,13.5c-4.1,2.3-9.1,2.4-13.4,0.5L65,129.2z"/>
	<path class="st0" d="M65,129.2l11.9-9.6c5.3,6.5,4.3,16.2-2.2,21.5c0,0,0,0-0.1,0c-0.8,0.6-1.6,1.2-2.4,1.6L65,129.2z"/>
	<path class="st6" d="M65,129.2v-15.3c4.6-0.1,9,2,11.9,5.6L65,129.2z"/>
	<circle class="st9" cx="65" cy="129.2" r="8.3"/>
	<path class="st0" d="M106.3,129.2l-6.2,14c-7.7-3.4-11.2-12.4-7.7-20.1c0,0,0,0,0,0c2.4-5.5,7.9-9.1,13.9-9.1L106.3,129.2z"/>
	<g class="st8">
		<path class="st9" d="M106.3,129.2l-6.2,14c-7.7-3.4-11.2-12.4-7.7-20.1c0,0,0,0,0,0c2.4-5.5,7.9-9.1,13.9-9.1L106.3,129.2z"/>
	</g>
	<path class="st6" d="M106.3,129.2l7.2,13.5c-4.1,2.3-9.1,2.4-13.4,0.5L106.3,129.2z"/>
	<path class="st0" d="M106.3,129.2l11.9-9.6c5.3,6.6,4.3,16.2-2.3,21.5c-0.8,0.6-1.6,1.1-2.4,1.6L106.3,129.2z"/>
	<path class="st6" d="M106.3,129.2v-15.3c4.6-0.1,9,2,11.9,5.6L106.3,129.2z"/>
	<circle class="st9" cx="106.3" cy="129.2" r="8.3"/>
	<line class="st5" x1="51" y1="102.1" x2="149.1" y2="102.1"/>
	<line class="st5" x1="51" y1="106.8" x2="167.3" y2="106.8"/>
</g>
<g id="freepik--character-2--inject-11">
	<path class="st10" d="M270.4,200.5c0,0-4.9,5.6-4.3,6.6s4.6,3.6,4.9,2c0.5-2.4,0.8-4.9,1-7.4C272,200,272.2,199.5,270.4,200.5z"/>
	<path class="st9" d="M273,188.5c0,0-3.3,7.1-3.6,8.7s1.3,3.6,1.3,4.3s-2,3.1-2,6.6s-0.3,11.8,2.8,13.8s8.2-0.2,8.2-0.2l4.9,9.5
		l19.4-11.2l-2.8-4.3c0,0,4.1-11,1-19.4s-14-9.7-18.4-10S274.5,185.4,273,188.5z"/>
	<g>
		<defs>
			<path id="SVGID_1_" d="M273,188.5c0,0-3.3,7.1-3.6,8.7s1.3,3.6,1.3,4.3s-2,3.1-2,6.6s-0.3,11.8,2.8,13.8s8.2-0.2,8.2-0.2l4.9,9.5
				l19.4-11.2l-2.8-4.3c0,0,4.1-11,1-19.4s-14-9.7-18.4-10S274.5,185.4,273,188.5z"/>
		</defs>
		<clipPath id="SVGID_2_">
			<use xlink:href="#SVGID_1_"  style="overflow:visible;"/>
		</clipPath>
		<g class="st11">
			<path class="st0" d="M301.1,215.6c0,0,4.1-11,1-19.4s-14-9.7-18.4-10c-0.7,0-1.4-0.1-2.2-0.1l-5.7,4.5c0,0-4.7,6.7-2.7,9.3
				s3.3,5.3,2.7,9.7s-5.1,11.8-0.7,12c0.9,0,2.4,0.2,4.1,0.3l0.4-0.1l0.1,0.2c6.5,0.7,16.5,2,16.5,2l1,0l6.7-3.9L301.1,215.6z"/>
			<path class="st12" d="M301.1,215.6c0,0,4.1-11,1-19.4s-14-9.7-18.4-10c-0.7,0-1.4-0.1-2.2-0.1l-5.7,4.5c0,0-4.7,6.7-2.7,9.3
				s3.3,5.3,2.7,9.7s-5.1,11.8-0.7,12c0.9,0,2.4,0.2,4.1,0.3l0.4-0.1l0.1,0.2c6.5,0.7,16.5,2,16.5,2l1,0l6.7-3.9L301.1,215.6z"/>
		</g>
	</g>
	<path class="st5" d="M273,188.5c0,0-3.3,7.1-3.6,8.7s1.3,3.6,1.3,4.3s-2,3.1-2,6.6s-0.3,11.8,2.8,13.8s8.2-0.2,8.2-0.2l4.9,9.5
		l19.4-11.2l-2.8-4.3c0,0,4.1-11,1-19.4s-14-9.7-18.4-10S274.5,185.4,273,188.5z"/>
	<path class="st7" d="M299.5,180.6c0,0-9.5-2.8-17.6-2.6s-16.4,2.6-16.1,6.9s7.9,5.9,7.9,5.9s4.4,0.3,3.1,1.5s-4.6,3.8-2,6.9
		s5.1,5.6,4.3,6.6s0.2,3.3,1.3,2.6s-0.5-3.8,2.3-4.9s5.6,3.3,4.6,6.1s-2.8,2.6-1.8,4.6s7.4,5.4,11.8,5.4s5.6-5.6,10.2-14.6
		S309,183.1,299.5,180.6z"/>
	<path class="st10" d="M275.3,233.5l2.5,4.9l28.1-18.4l-2.8-3.3C303.1,216.6,279.6,229.6,275.3,233.5z"/>
	<path class="st9" d="M280.7,234.2c0,0-5.6,7.7-7.7,11.5s-10.7,26.3-14.6,34.2c-2.2,4.6-4,9.3-5.3,14.2h53.6c0,0,6.1-30.6,6.1-43.9
		s-3.1-23.2-4.1-25.8s-4.9-4.6-4.9-4.6L280.7,234.2z"/>
	<g>
		<defs>
			<path id="SVGID_3_" d="M280.7,234.2c0,0-5.6,7.7-7.7,11.5s-10.7,26.3-14.6,34.2c-2.2,4.6-4,9.3-5.3,14.2h53.6
				c0,0,6.1-30.6,6.1-43.9s-3.1-23.2-4.1-25.8s-4.9-4.6-4.9-4.6L280.7,234.2z"/>
		</defs>
		<clipPath id="SVGID_4_">
			<use xlink:href="#SVGID_3_"  style="overflow:visible;"/>
		</clipPath>
		<g class="st13">
			<path class="st14" d="M280.7,234.2c0,0-5.6,7.7-7.7,11.5s-10.7,26.3-14.6,34.2c-2.2,4.6-4,9.3-5.3,14.2h53.6
				c0,0,6.1-30.6,6.1-43.9s-3.1-23.2-4.1-25.8s-4.9-4.6-4.9-4.6L280.7,234.2z"/>
			<path class="st14" d="M266,262.9c0,0,12-18.8,16.5-23.6s26.9-16.4,26.9-16.4l-3.5-3.8c0,0-23.1,11.5-26.6,15
				S265.3,258.7,266,262.9z"/>
		</g>
	</g>
	<path class="st5" d="M280.7,234.2c0,0-5.6,7.7-7.7,11.5s-10.7,26.3-14.6,34.2c-2.2,4.6-4,9.3-5.3,14.2h53.6c0,0,6.1-30.6,6.1-43.9
		s-3.1-23.2-4.1-25.8s-4.9-4.6-4.9-4.6L280.7,234.2z"/>
	<path class="st5" d="M295.5,234.2c0,0-14,9.2-16.1,12.8s-0.2,9.2-0.2,10s-2,3.3-2,4.1v2.5l-11,29.6h25c0,0,10.7-26,12.8-31.2
		s3.1-14.3,2-19.4"/>
	<path class="st5" d="M281.4,256.2c0,0,6.1-7.2,15.3-8.2"/>
</g>
<g id="freepik--character-3--inject-11">
	<path class="st0" d="M340.9,203.8c0,0-17.6-3.5-22.6,0.7s-2.1,30-3.5,36.7s-4.9,13.8-3.5,20.8s4.6,12,6,15.5s-0.4,16.6-0.4,16.6
		h51.5c0,0,9.2-24.3,9.2-42.7s-5.6-34.2-14.1-40.2S340.9,203.8,340.9,203.8z"/>
	<g>
		<defs>
			<path id="SVGID_5_" d="M340.9,203.8c0,0-17.6-3.5-22.6,0.7s-2.1,30-3.5,36.7s-4.9,13.8-3.5,20.8s4.6,12,6,15.5
				s-0.4,16.6-0.4,16.6h51.5c0,0,9.2-24.3,9.2-42.7s-5.6-34.2-14.1-40.2S340.9,203.8,340.9,203.8z"/>
		</defs>
		<clipPath id="SVGID_6_">
			<use xlink:href="#SVGID_5_"  style="overflow:visible;"/>
		</clipPath>
		<g class="st15">
			<path class="st16" d="M322.1,214.9c-5,8.3,0.7,54,2,58.3s-8.3,0.3-5.3,2.7s8.7,6.3,8.7,6.3c-3.2-1.4-6.5-2.6-9.8-3.7
				c0.2,1,0.3,2.1,0.3,3.2c3.3,2.6,6.9,5,10.5,7.1l-11,0.9c-0.2,2.5-0.5,4.4-0.5,4.4h51.5c0,0,9.2-24.3,9.2-42.7
				c0.1-7.6-1-15.2-3.2-22.6l-30.7-13C343.7,215.9,327.1,206.5,322.1,214.9z"/>
		</g>
	</g>
	<path class="st5" d="M340.9,203.8c0,0-17.6-3.5-22.6,0.7s-2.1,30-3.5,36.7s-4.9,13.8-3.5,20.8s4.6,12,6,15.5s-0.4,16.6-0.4,16.6
		h51.5c0,0,9.2-24.3,9.2-42.7s-5.6-34.2-14.1-40.2S340.9,203.8,340.9,203.8z"/>
	<path class="st7" d="M340.5,140.3c0,0-7.8-6.4-15.2-1.8s-20.1,25.8-18.7,36.3s14.1,20.5,5.6,26.1s-5.3,15.9-1.1,18.7l2.5,0.4
		c0,0,0-10.2,7.1-13.1s17.3-0.4,19.8,2.8s-2.1,19.4,3.9,23.6s14.5,4.9,12.7,9.2s-7.8,10.9-3.9,16.9s13.4,12,16.6,9.9s-1.4-4.6,0.4-6
		s16.2-6.4,13.8-12.4s-7.8-9.2-5.3-11.6s11.6-8.5,10.6-16.9s-21.2-14.8-21.9-24s12-10.2,7.8-31s-17.2-30-23.6-30
		C347.7,137.5,343.9,138.5,340.5,140.3z"/>
	<path class="st17" d="M347.4,151.4c5.3,7.4,12,18.2,12.2,26.5c0.3,13.7-11.7,19.4-9.7,30s25.4,12.5,27,22s-9,6-6.4,11.4
		s13,10,8.7,16"/>
	<path class="st17" d="M340.9,143.1c0,0,1.1,1.3,2.8,3.4"/>
	<path class="st17" d="M335.6,197.3c1.2,1.3,2,2.5,2,3.6"/>
	<path class="st17" d="M315.2,156.5c0,0-5.3,14.7,2.7,24.7c4.3,5.3,9.6,9.2,13.6,12.5"/>
	<path class="st17" d="M363.3,217.4c1.5,0.6,3.2,1,5,1.5"/>
	<path class="st17" d="M365.3,153.5c0,0,11.4,14.4,7.4,26.7c-4,12.4-17.4,19-17.4,27c-0.1,2.4,0.7,4.8,2.3,6.7"/>
	<path class="st10" d="M230.4,282.4c0,0-2.1,2.6-2.1,4.2s-0.8,4.9,0.2,5s1.6-3.4,2.6-4.7s3.4-1.6,3.3-3.4S231.9,280.1,230.4,282.4z"
		/>
	<path class="st10" d="M253.9,284.7c0,0-9.1-7.7-11.4-8.5s-6.9,4.4-9.6,9.5s-1.3,6.2,0.2,6.4s7.8-2.6,7.8-2.6
		c2.3,1.8,4.9,3.1,7.7,3.7c4.4,1,10.8-1.6,10.9-4.2S253.9,284.7,253.9,284.7z"/>
	<path class="st0" d="M338.8,232.4c0,0,0.4,53.3-1.1,57.5s-6.4,4.2-14.5,4.6s-57.5-1-57.5-1c-2.8,0.4-5.6,0.6-8.5,0.7
		c-3.9,0-10.6-0.7-13.1-2.5s-4.6-2.1-5.6-1.8s-3.9,3.9-6.4,3.9s-5.3-1.1-3.5-1.4s11.3-10.6,13.4-10.6s17.3,3.9,20.1,3.5
		s53.3-10.2,53.3-10.2l-1.8-55c0,0-1.8-9.5,7.1-13.1"/>
	<g>
		<defs>
			<path id="SVGID_7_" d="M338.8,232.4c0,0,0.4,53.3-1.1,57.5s-6.4,4.2-14.5,4.6s-57.5-1-57.5-1c-2.8,0.4-5.6,0.6-8.5,0.7
				c-3.9,0-10.6-0.7-13.1-2.5s-4.6-2.1-5.6-1.8s-3.9,3.9-6.4,3.9s-5.3-1.1-3.5-1.4s11.3-10.6,13.4-10.6s17.3,3.9,20.1,3.5
				s53.3-10.2,53.3-10.2l-1.8-55c0,0-1.8-9.5,7.1-13.1"/>
		</defs>
		<clipPath id="SVGID_8_">
			<use xlink:href="#SVGID_7_"  style="overflow:visible;"/>
		</clipPath>
		<g class="st18">
			<path class="st16" d="M324.8,212.3c-1.1,0.6-2.1,1.4-2.7,2.5c-5,8.3,0.7,54,2,58.3s-8.3,0.3-5.3,2.7s8.7,6.3,8.7,6.3
				s-16.3-7-12-2.7s13,9.3,13,9.3l-57,4.8c13.2,0.4,45.5,1.2,51.9,0.9c8.1-0.4,13-0.4,14.5-4.6s1.1-58.6,1.1-58.6L324.8,212.3z"/>
		</g>
	</g>
	<path class="st5" d="M338.8,232.4c0,0,0.4,53.3-1.1,57.5s-6.4,4.2-14.5,4.6s-57.5-1-57.5-1c-2.8,0.4-5.6,0.6-8.5,0.7
		c-3.9,0-10.6-0.7-13.1-2.5s-4.6-2.1-5.6-1.8s-3.9,3.9-6.4,3.9s-5.3-1.1-3.5-1.4s11.3-10.6,13.4-10.6s17.3,3.9,20.1,3.5
		s53.3-10.2,53.3-10.2l-1.8-55c0,0-1.8-9.5,7.1-13.1"/>
	<path class="st10" d="M280.5,293.8c-1.1-4-0.8-8.2,0.7-12.1c-9.6,1.9-17.8,3.4-18.9,3.5c-2.8,0.4-18-3.5-20.1-3.5
		s-11.6,10.2-13.4,10.6s1.1,1.4,3.5,1.4s5.3-3.5,6.4-3.9s3.2,0,5.6,1.8s9.2,2.5,13.1,2.5c2.8-0.1,5.7-0.3,8.5-0.7L280.5,293.8z"/>
	<path class="st10" d="M234.1,278.6c-1.5,0.9-2.8,2.2-3.8,3.8c-1,2.1,0,8.6,1.6,8.6s2.8-1.8,2.8-4.1S234.1,278.6,234.1,278.6z"/>
	<path class="st10" d="M236.4,277.3c0,0-2.6,0.2-3.6,2.1s-0.8,10.3,0.8,10.6s2.3-2.5,2.3-4.2S236.4,277.3,236.4,277.3z"/>
	<path class="st10" d="M242.5,276.2c0,0-3.9-0.7-5.5,0.5s-2,11.2-0.8,12s3.1-1.3,3.1-2.4s2.3-7.3,2.3-7.3"/>
</g>
<g id="freepik--character-1--inject-11">
	<g>
		<defs>
			<rect id="SVGID_9_" x="75.8" y="117.5" width="164.6" height="176.7"/>
		</defs>
		<clipPath id="SVGID_10_">
			<use xlink:href="#SVGID_9_"  style="overflow:visible;"/>
		</clipPath>
		<g class="st19">
			<path class="st0" d="M144.5,242.9c0,0-4.7,7.1-2.7,10.5s9.1,10.6,23.9,9.6s5.9-25.9,7.6-41.1s-4.7-17.5-9.9-13.5
				s-11.6,22.9-14,26.1C147.6,237.1,145.9,239.9,144.5,242.9z"/>
			<g>
				<defs>
					<path id="SVGID_11_" d="M144.5,242.9c0,0-4.7,7.1-2.7,10.5s9.1,10.6,23.9,9.6s5.9-25.9,7.6-41.1s-4.7-17.5-9.9-13.5
						s-11.6,22.9-14,26.1C147.6,237.1,145.9,239.9,144.5,242.9z"/>
				</defs>
				<clipPath id="SVGID_12_">
					<use xlink:href="#SVGID_11_"  style="overflow:visible;"/>
				</clipPath>
				<g class="st20">
					<path class="st21" d="M144.5,242.9c0,0-4.7,7.1-2.7,10.5s9.1,10.6,23.9,9.6s5.9-25.9,7.6-41.1s-4.7-17.5-9.9-13.5
						s-11.6,22.9-14,26.1C147.6,237.1,145.9,239.9,144.5,242.9z"/>
				</g>
			</g>
			<path class="st5" d="M144.5,242.9c0,0-4.7,7.1-2.7,10.5s9.1,10.6,23.9,9.6s5.9-25.9,7.6-41.1s-4.7-17.5-9.9-13.5
				s-11.6,22.9-14,26.1C147.6,237.1,145.9,239.9,144.5,242.9z"/>
			<path class="st7" d="M162.5,247c0,0,0,21.9,0.2,28.8s1.2,23.6,1.2,23.6h46.3l-2.5-50l-0.7-2.5L162.5,247z"/>
			<polygon class="st10" points="189.4,252.8 208,253.6 207.8,249.5 207.1,247 189.2,247 			"/>
			<path class="st10" d="M167.4,247h-4.9c0,0,0,1.9,0,4.7l4.9,0.2L167.4,247z"/>
			<polygon class="st10" points="169,247 169.3,252 186.1,252.7 185.9,247 			"/>
			<path class="st9" d="M162.8,209.1c0,0-0.2,28.3,0,32.8s-2,5.9,1.7,6.6s33.7,1.5,36.7,1s3-2,3.7-3.5s10.6-64.8,8.4-66.5
				s-16.2-6.9-17.5-6.9s-19.4,1-22.9,1.5s-7.4-0.5-7.6,1.5S162.8,209.1,162.8,209.1z"/>
			<g>
				<defs>
					<path id="SVGID_13_" d="M162.8,209.1c0,0-0.2,28.3,0,32.8s-2,5.9,1.7,6.6s33.7,1.5,36.7,1s3-2,3.7-3.5s10.6-64.8,8.4-66.5
						s-16.2-6.9-17.5-6.9s-19.4,1-22.9,1.5s-7.4-0.5-7.6,1.5S162.8,209.1,162.8,209.1z"/>
				</defs>
				<clipPath id="SVGID_14_">
					<use xlink:href="#SVGID_13_"  style="overflow:visible;"/>
				</clipPath>
				<g class="st22">
					<path class="st23" d="M177.9,182c0,0-5.8-0.3-6.9,0.3c-0.6,0.3-4.4,9.6-7.6,17.6c-0.4,5.2-0.6,9.2-0.6,9.2s-0.2,28.3,0,32.8
						c0.2,2.9-0.7,4.5-0.3,5.5c1.2-4.3,3.2-11.8,5.5-22.5C171.8,207,177.9,182,177.9,182z"/>
				</g>
			</g>
			<path class="st5" d="M162.8,209.1c0,0-0.2,28.3,0,32.8s-2,5.9,1.7,6.6s33.7,1.5,36.7,1s3-2,3.7-3.5s10.6-64.8,8.4-66.5
				s-16.2-6.9-17.5-6.9s-19.4,1-22.9,1.5s-7.4-0.5-7.6,1.5S162.8,209.1,162.8,209.1z"/>
			<path class="st10" d="M111.5,193.5c0,0-8.9-4.4-12.1-5.2s-13.6-3.2-14.3-2.2s0.2,2,1.2,2s7.4,2.7,7.4,2.7s-0.7,5.9-0.7,7.4
				s7.9,4.4,9.6,4.7s5.2-1.1,5.2-1.1l2.4-0.7L111.5,193.5z"/>
			<path class="st10" d="M93.1,191.8c0,0-1,6.6-0.2,7.4s5.9,4.2,6.6,2.5s0.5-8.4,0.5-9.1S93.1,191.8,93.1,191.8z"/>
			<path class="st10" d="M108.6,193.8c0,0-8.4-3.2-10.3-3.2s-5.2,2.7-6.9,3.2s0.5,2,1.7,1.7s4.7-1.2,4.7-1.2
				c0.8,1.5,1.9,2.7,3.2,3.7c2,1.2,6.1,0.5,6.1,0.5"/>
			<path class="st0" d="M183.6,172.5c0,0-14.8-1.3-17.8-0.6s-10,17.7-11,20s-12,13-12,13l-31.7-12.3l-3.3,9.3c0,0,25.7,16.7,30,18.7
				s10.3,1.7,12.3,1.7c1.5-0.1,2.9-0.7,4-1.7l-9.7,22.3c0,0,15.7-18.7,20.3-27.7s15.3-35.3,16.3-36S183.6,172.5,183.6,172.5z"/>
			<g>
				<defs>
					<path id="SVGID_15_" d="M183.6,172.5c0,0-14.8-1.3-17.8-0.6s-10,17.7-11,20s-12,13-12,13l-31.7-12.3l-3.3,9.3
						c0,0,25.7,16.7,30,18.7s10.3,1.7,12.3,1.7c1.5-0.1,2.9-0.7,4-1.7l-9.7,22.3c0,0,15.7-18.7,20.3-27.7s15.3-35.3,16.3-36
						S183.6,172.5,183.6,172.5z"/>
				</defs>
				<clipPath id="SVGID_16_">
					<use xlink:href="#SVGID_15_"  style="overflow:visible;"/>
				</clipPath>
				<g class="st24">
					<path class="st16" d="M149.4,211.2c-0.8,0-1.9-0.5-2.9-0.5s1.3,4,0.8,5.4s-38.8-15-38.8-15l-0.1,1.2
						c3.6,2.4,25.5,16.5,29.5,18.3c4.3,2,10.3,1.7,12.3,1.7c1.3-0.1,2.6-0.6,3.6-1.4c2.9-7.5,5-19.8,5-19.8S150.3,211.2,149.4,211.2
						z"/>
				</g>
			</g>
			<path class="st5" d="M183.6,172.5c0,0-14.8-1.3-17.8-0.6s-10,17.7-11,20s-12,13-12,13l-31.7-12.3l-3.3,9.3c0,0,25.7,16.7,30,18.7
				s10.3,1.7,12.3,1.7c1.5-0.1,2.9-0.7,4-1.7l-9.7,22.3c0,0,15.7-18.7,20.3-27.7s15.3-35.3,16.3-36S183.6,172.5,183.6,172.5z"/>
			<polygon class="st10" points="183.6,172.5 179.5,176.4 179.8,184.1 184.1,180 			"/>
			<path class="st9" d="M175.9,134.5c0,0-4.4,6.8-4.1,8.2s1,2.9,1,4s-5,5.1-4.4,6s3.4,2.3,3.4,2.3s-0.1,11.1,2.4,12.5
				s7.4-0.9,7.4-0.9l2.6,14.2l14.5-10.2v-10.2c0,0,8.5-9.7,9.1-17.3c0.6-7.7-10-16.2-20.5-17.6s-16.2,5.7-14.5,8
				S175.9,134.5,175.9,134.5z"/>
			<g>
				<defs>
					<path id="SVGID_17_" d="M175.9,134.5c0,0-4.4,6.8-4.1,8.2s1,2.9,1,4s-5,5.1-4.4,6s3.4,2.3,3.4,2.3s-0.1,11.1,2.4,12.5
						s7.4-0.9,7.4-0.9l2.6,14.2l14.5-10.2v-10.2c0,0,8.5-9.7,9.1-17.3c0.6-7.7-10-16.2-20.5-17.6s-16.2,5.7-14.5,8
						S175.9,134.5,175.9,134.5z"/>
				</defs>
				<clipPath id="SVGID_18_">
					<use xlink:href="#SVGID_17_"  style="overflow:visible;"/>
				</clipPath>
				<g class="st25">
					<path class="st0" d="M193.2,174.5l5.4-3.8v-10.2c0,0,8.5-9.7,9.1-17.3c0.4-5-4-10.4-10-13.9l-15.1,6.2c0,0-7.1,6.2-6.1,7.1
						s3.6,4.3,3,5.9c0,0-2.5,1-2.3,2.7s6.1,13,6.1,13l-1.8,2.6L193.2,174.5z"/>
					<path class="st12" d="M193.2,174.5l5.4-3.8v-10.2c0,0,8.5-9.7,9.1-17.3c0.4-5-4-10.4-10-13.9l-15.1,6.2c0,0-7.1,6.2-6.1,7.1
						s3.6,4.3,3,5.9c0,0-2.5,1-2.3,2.7s6.1,13,6.1,13l-1.8,2.6L193.2,174.5z"/>
				</g>
			</g>
			<path class="st5" d="M175.9,134.5c0,0-4.4,6.8-4.1,8.2s1,2.9,1,4s-5,5.1-4.4,6s3.4,2.3,3.4,2.3s-0.1,11.1,2.4,12.5
				s7.4-0.9,7.4-0.9l2.6,14.2l14.5-10.2v-10.2c0,0,8.5-9.7,9.1-17.3c0.6-7.7-10-16.2-20.5-17.6s-16.2,5.7-14.5,8
				S175.9,134.5,175.9,134.5z"/>
			<path class="st0" d="M198.5,172.9c0,0-3.2,11.3-7.1,25.6s-3.2,58.6-3.2,61.1s5.7,11.3,12.1,13.8c4.2,1.5,8.6,2.5,13,3
				c0,0-4.4-29.3-4.4-37.7s3.9-21.4,3.9-21.4s5.9,14.8,8.4,16.8s12.3,4.2,12.1-4.9s-8.6-41.6-10.8-44.8s-12.8-6.4-12.8-6.4
				L198.5,172.9z"/>
			<g>
				<defs>
					<path id="SVGID_19_" d="M198.5,172.9c0,0-3.2,11.3-7.1,25.6s-3.2,58.6-3.2,61.1s5.7,11.3,12.1,13.8c4.2,1.5,8.6,2.5,13,3
						c0,0-4.4-29.3-4.4-37.7s3.9-21.4,3.9-21.4s5.9,14.8,8.4,16.8s12.3,4.2,12.1-4.9s-8.6-41.6-10.8-44.8s-12.8-6.4-12.8-6.4
						L198.5,172.9z"/>
				</defs>
				<clipPath id="SVGID_20_">
					<use xlink:href="#SVGID_19_"  style="overflow:visible;"/>
				</clipPath>
				<g class="st26">
					<g class="st27">
						<path d="M208.8,238.6L208.8,238.6c-5.6,1.5-10.1,2.5-10.1,2.5s6.9,13.7,9.6,13.7h1.9C209.5,248.2,208.8,241.9,208.8,238.6z"/>
						<path d="M214.1,198c3,3.3,9.3,1.6,9.3,2.8s-4.9,3.6-3,7.4s13.2,20.3,9.9,23.4c-1,0.9-4,2-7.8,3.3c3.6,1.6,10.9,2.2,10.7-5.7
							c-0.2-9.1-8.6-41.6-10.8-44.8C222.4,184.2,211.1,194.7,214.1,198z"/>
						<path d="M206.1,201.8c-1.7,1.5-2.4,3.8-1.7,5.9c1.1,3.7,5.4,7.4,4.2,9.3s-9.6,0.6-9.3,3.4s9.1,12.2,9.1,12.2l3.7-16.7
							L206.1,201.8z"/>
					</g>
				</g>
			</g>
			<path class="st5" d="M198.5,172.9c0,0-3.2,11.3-7.1,25.6s-3.2,58.6-3.2,61.1s5.7,11.3,12.1,13.8c4.2,1.5,8.6,2.5,13,3
				c0,0-4.4-29.3-4.4-37.7s3.9-21.4,3.9-21.4s5.9,14.8,8.4,16.8s12.3,4.2,12.1-4.9s-8.6-41.6-10.8-44.8s-12.8-6.4-12.8-6.4
				L198.5,172.9z"/>
			<polygon class="st10" points="198.6,167.9 185.8,177 186.7,185 200.7,172.2 			"/>
			<path class="st9" d="M202.7,234.4c0,0-9.4-4.2-10.1-4.2s-8.1,3.9-9.6,3.9s-2.2,1-1.2,1.7c0.8,0.5,1.8,0.7,2.7,0.7
				c0,0-3.4,2-3.2,3s2.2,1.7,2.2,1.7c1,1.6,2.5,2.8,4.2,3.5c2.5,0.7,11.1-2.2,11.1-2.2l6.6-0.5L202.7,234.4z"/>
			<g>
				<defs>
					<path id="SVGID_21_" d="M202.7,234.4c0,0-9.4-4.2-10.1-4.2s-8.1,3.9-9.6,3.9s-2.2,1-1.2,1.7c0.8,0.5,1.8,0.7,2.7,0.7
						c0,0-3.4,2-3.2,3s2.2,1.7,2.2,1.7c1,1.6,2.5,2.8,4.2,3.5c2.5,0.7,11.1-2.2,11.1-2.2l6.6-0.5L202.7,234.4z"/>
				</defs>
				<clipPath id="SVGID_22_">
					<use xlink:href="#SVGID_21_"  style="overflow:visible;"/>
				</clipPath>
				<g class="st28">
					<path class="st0" d="M192.5,234.5c-3,0.7-9.1,6.8-9.1,6.8c1,1.6,2.5,2.8,4.2,3.5c2.5,0.7,11.1-2.2,11.1-2.2l6.6-0.5l-2.7-7.6
						C202.7,234.4,195.5,233.9,192.5,234.5z"/>
					<path class="st12" d="M192.5,234.5c-3,0.7-9.1,6.8-9.1,6.8c1,1.6,2.5,2.8,4.2,3.5c2.5,0.7,11.1-2.2,11.1-2.2l6.6-0.5l-2.7-7.6
						C202.7,234.4,195.5,233.9,192.5,234.5z"/>
				</g>
			</g>
			<path class="st5" d="M202.7,234.4c0,0-9.4-4.2-10.1-4.2s-8.1,3.9-9.6,3.9s-2.2,1-1.2,1.7c0.8,0.5,1.8,0.7,2.7,0.7
				c0,0-3.4,2-3.2,3s2.2,1.7,2.2,1.7c1,1.6,2.5,2.8,4.2,3.5c2.5,0.7,11.1-2.2,11.1-2.2l6.6-0.5L202.7,234.4z"/>
			<path class="st0" d="M225.1,223.9l-23.1,9.4l1.7,9.9c0,0,31-4.4,32.5-6.6s-4.2-14.8-4.2-14.8"/>
			<g>
				<defs>
					<path id="SVGID_23_" d="M225.1,223.9l-23.1,9.4l1.7,9.9c0,0,31-4.4,32.5-6.6s-4.2-14.8-4.2-14.8"/>
				</defs>
				<clipPath id="SVGID_24_">
					<use xlink:href="#SVGID_23_"  style="overflow:visible;"/>
				</clipPath>
				<g class="st29">
					<path class="st16" d="M203.1,240l0.5,3c0,0,31-4.4,32.5-6.6s-4.2-14.8-4.2-14.8l-3.3,1.1c1.9,4,3,7.5,1.7,8.8
						C227.8,233.7,211.2,238,203.1,240z"/>
				</g>
			</g>
			<path class="st5" d="M225.1,223.9l-23.1,9.4l1.7,9.9c0,0,31-4.4,32.5-6.6s-4.2-14.8-4.2-14.8"/>
			<path class="st10" d="M154.2,220.5c0,0,4.6-17.9,6.1-27.7"/>
			<polyline class="st17" points="174.6,271.8 181.2,277.3 182.3,299.5 			"/>
			<path class="st5" d="M212.8,217.2l-6.5-12c0,0-1.9-2.5,1.9-8.8"/>
			<path class="st7" d="M187.2,125.5c-10.5-1.4-16.2,5.7-14.5,8c0.4,0.7,1.1,1.1,1.8,1.4l1.3-0.2c0,0,9.7,0.3,9.1,3.4s-6.3,3.4-4,6
				c0.6,0.7,1.3,1.2,2,1.7h-0.3c0.6,0.5,1.1,1.2,1.4,1.9c0.4,1.2-1.8,10.9-2.1,11.7s-2.5-0.2-5.2-2.1c-1.4-1.1-3.1-1.8-4.9-2.1
				l-0.2,1.8c0,0,2.7,0.8,3.1,2.3s-2.1,1.8-2.1,3.1s-0.2,3.8,1.6,5.3s7.4-0.9,7.4-0.9s4.2-2.9,4.8-6c0.5-2.5,0.8-7,1.2-9.2
				c0.6-0.7,1.2-1.5,1.7-2.4c0,0,4.6-1.1,3.1,3.4s-4.3,4.6-4.3,4.6c3.2,1.9,6.8,3,10.5,3.5v-0.1c0,0,8.5-9.7,9.1-17.3
				S197.8,126.9,187.2,125.5z"/>
		</g>
	</g>
</g>
<g id="freepik--Mug--inject-11">
	<rect x="197.2" y="269.3" class="st10" width="16.8" height="24.9"/>
	<path class="st10" d="M213.3,290.8h-1.8c-0.8,0-1.4-0.6-1.4-1.4c0-0.8,0.6-1.4,1.4-1.4h1.8c1.5,0,2.6-1.2,2.6-2.6l0,0v-6
		c0-1.5-1.2-2.6-2.6-2.6H211c-0.8,0.1-1.4-0.5-1.5-1.3c-0.1-0.8,0.5-1.4,1.3-1.5c0.1,0,0.2,0,0.2,0h2.3c3,0,5.4,2.4,5.4,5.4l0,0v6
		C218.7,288.4,216.3,290.8,213.3,290.8z"/>
</g>
<g id="freepik--Device--inject-11">
	<path class="st10" d="M124.8,293.9H79.1c-0.4,0-0.7-0.2-0.8-0.5l-12.7-28.8c-0.2-0.4,0-1,0.5-1.2c0.1-0.1,0.2-0.1,0.4-0.1h45.8
		c0.4,0,0.7,0.2,0.8,0.5l12.7,28.9c0.2,0.5-0.1,1-0.5,1.1C125,293.9,124.9,293.9,124.8,293.9z"/>
	<path class="st7" d="M120.5,291.6H81.5c-0.3,0-0.6-0.2-0.7-0.5L70,266.5c-0.2-0.4,0-0.8,0.4-1c0.1,0,0.2-0.1,0.3-0.1h39.1
		c0.3,0,0.6,0.2,0.7,0.5l10.8,24.6c0.2,0.4,0,0.8-0.4,1C120.8,291.6,120.7,291.6,120.5,291.6z"/>
	<rect x="78.4" y="292" class="st10" width="68.8" height="2.2"/>
	<rect x="78.4" y="292" class="st10" width="33.3" height="2.2"/>
</g>
<g id="freepik--Plant--inject-11">
	<path class="st6" d="M15.9,238.3c1.4,0.4,2.9,0.5,4.4,0.5c0,0-0.7-2-0.7-2.2c-0.7-1.4-2.8-3.8-4.6-3.6c-1.1,0.2-1.9,1.3-1.7,2.4
		c0,0.1,0,0.2,0.1,0.2C13.7,236.9,14.7,237.8,15.9,238.3z"/>
	<path class="st6" d="M17,247.3c1.5,0,2.9-0.2,4.3-0.7c0.5,1.6,1,3.2,1.7,4.7c0.4,0.9,0.8,1.8,1.2,2.6c-0.2-0.4-0.5-0.7-0.5-0.7
		c-1-1.2-3.7-2.9-5.4-2.2c-1.1,0.5-1.5,1.7-1,2.8c0,0.1,0.1,0.1,0.1,0.2c0.8,1,1.9,1.7,3.2,1.8c1.4,0,2.8-0.2,4.2-0.6
		c0.2,0.3,0.3,0.7,0.5,1c0.8,1.6,1.6,3.2,2.4,4.8c0.3,0.6,0.5,1.1,0.8,1.7L28,262c-1-1.2-3.8-2.9-5.4-2.2c-1.1,0.5-1.5,1.7-1,2.8
		c0,0.1,0.1,0.1,0.1,0.2c0.8,1,1.9,1.7,3.2,1.8c1.4,0,2.8-0.2,4.1-0.6c0.2,0.6,0.5,1.2,0.7,1.7c0.1,0.4,0.3,0.8,0.4,1.2l0.3,1.2
		c0.2,0.8,0.4,1.5,0.5,2.3c0.1,0.5,0.2,1,0.3,1.5c-0.3-0.6-0.8-1.6-0.8-1.7c-0.8-1.4-3.3-3.4-5-3c-1.1,0.3-1.8,1.5-1.5,2.6
		c0,0.1,0.1,0.2,0.1,0.2c0.6,1.2,1.6,2,2.9,2.3c1.4,0.2,2.9,0.2,4.3,0c0.2,0.8,0.3,1.6,0.4,2.4c0.5,2.6,0.7,4.9,0.9,6.4
		c0,0.3,0.1,0.5,0.1,0.8h-5.3l0.7,12.6h11.7l0.7-12.6h-5c0-0.1,0.1-0.1,0.1-0.2c0.7-1.4,1.6-3.5,2.7-6c0.3-0.8,0.7-1.6,1-2.5
		c1.4,0.3,2.9,0.4,4.3,0.3c1.3-0.2,2.4-0.9,3.1-2c0.5-1,0.1-2.3-0.9-2.8c-0.1,0-0.1-0.1-0.2-0.1c-1.7-0.6-4.2,1.4-5.2,2.6
		c-0.1,0.1-0.6,1-0.9,1.5c0.1-0.4,0.3-0.7,0.4-1.1c0.3-0.7,0.5-1.5,0.8-2.3l0.4-1.2c0.1-0.4,0.2-0.8,0.3-1.2c0.2-1,0.4-1.9,0.6-2.9
		c1.3,0.5,2.7,0.8,4.1,1c1.3,0,2.5-0.6,3.3-1.6c0.7-0.9,0.4-2.3-0.5-2.9c-0.1,0-0.1-0.1-0.2-0.1c-1.6-0.8-4.4,0.7-5.5,1.8
		c-0.1,0.1-0.8,1-1.2,1.5c0.1-0.6,0.2-1.2,0.3-1.8c0.2-1.8,0.4-3.5,0.6-5.3c0.1-0.5,0.1-1.1,0.2-1.6c1.4,0.5,2.8,0.9,4.3,1
		c1.3,0,2.5-0.6,3.3-1.6c0.6-1,0.4-2.3-0.6-2.9c-0.1,0-0.1-0.1-0.2-0.1c-1.6-0.8-4.4,0.7-5.5,1.8c-0.1,0.1-1.1,1.4-1.4,1.7
		c0.1-1.2,0.3-2.4,0.4-3.6c0.2-1.6,0.6-3.2,1-4.7c1.4,0.5,2.8,0.9,4.3,1c1.3,0,2.5-0.6,3.3-1.6c0.7-1,0.4-2.3-0.5-2.9
		c-0.1,0-0.1-0.1-0.2-0.1c-1.6-0.8-4.4,0.7-5.5,1.8c-0.1,0.1-1.2,1.5-1.4,1.7c0-0.1,0.1-0.2,0.1-0.3c0.5-1.5,1.1-3,1.9-4.4
		c0.4-0.8,0.8-1.5,1.3-2.2c1.3,0.7,2.6,1.2,4.1,1.4c1.3,0.1,2.6-0.3,3.5-1.2c0.8-0.9,0.7-2.2-0.2-3c-0.1,0-0.1-0.1-0.2-0.1
		c-1.5-1-4.5,0.2-5.7,1.2c-0.1,0-0.7,0.7-1.1,1.1c0.2-0.3,0.4-0.6,0.6-0.9c0.7-1.1,1.5-2.1,2.2-3l1.1-1.3c1.4,0,2.9-0.2,4.2-0.6
		c1.2-0.5,2.1-1.4,2.6-2.7c0.3-1.1-0.4-2.3-1.5-2.5c-0.1,0-0.1,0-0.2,0c-1.8-0.2-3.9,2.2-4.5,3.7c-0.1,0.1-0.7,2.2-0.7,2.2l0,0
		c-0.3,0.4-0.7,0.8-1.1,1.2c-0.7,0.9-1.5,1.8-2.2,2.9c-0.8,1.2-1.6,2.4-2.3,3.7c-0.8,1.4-1.5,2.9-2,4.5v0.1c0-0.5,0-2,0-2.1
		c-0.2-1.6-1.5-4.5-3.3-4.8c-1.2-0.2-2.2,0.6-2.4,1.8c0,0.1,0,0.2,0,0.2c0.1,1.3,0.7,2.5,1.7,3.3c1.2,0.8,2.6,1.4,4,1.8
		c-0.5,1.6-0.9,3.2-1.2,4.8c-0.2,1-0.3,1.9-0.4,2.9c0-0.5,0-0.9,0-0.9c-0.2-1.6-1.5-4.5-3.3-4.8c-1.1-0.2-2.2,0.6-2.4,1.8
		c0,0.1,0,0.2,0,0.2c0,1.3,0.7,2.5,1.7,3.3c1.2,0.8,2.5,1.4,3.9,1.8c0,0.4-0.1,0.7-0.1,1.1c-0.2,1.8-0.4,3.6-0.7,5.3
		c-0.1,0.6-0.2,1.2-0.3,1.8c0-0.4,0-0.7,0-0.8c-0.2-1.6-1.5-4.5-3.3-4.8c-1.2-0.2-2.2,0.6-2.4,1.8c0,0.1,0,0.2,0,0.2
		c0.1,1.3,0.7,2.5,1.7,3.3c1.2,0.8,2.4,1.4,3.8,1.7c-0.1,0.6-0.3,1.2-0.4,1.8c-0.1,0.4-0.2,0.8-0.3,1.2s-0.3,0.8-0.4,1.2
		c-0.3,0.7-0.5,1.5-0.8,2.2c-0.2,0.5-0.4,1-0.6,1.4c0.1-0.6,0.3-1.8,0.3-1.9c0-1.4-0.4-2.8-1.1-4c0-0.2,0-0.3,0-0.5
		c-0.1-1.2-1.2-2-2.3-1.8c-0.1,0-0.1,0-0.2,0c-1.7,0.5-2.8,3.5-2.9,5c0,0.1,0,1.1,0.1,1.8c-0.1-0.4-0.2-0.7-0.3-1.1
		c-0.2-0.8-0.4-1.5-0.6-2.3c-0.1-0.4-0.2-0.8-0.4-1.2c-0.1-0.4-0.3-0.8-0.4-1.2c-0.3-0.9-0.7-1.9-1.1-2.8c1.4-0.3,2.8-0.8,4-1.5
		c1.1-0.7,1.8-1.9,1.9-3.1c0-1.2-0.9-2.1-2-2.2c-0.1,0-0.2,0-0.2,0c-1.8,0.2-3.3,3-3.6,4.6c0,0.1-0.1,1.2-0.2,1.9
		c-0.3-0.5-0.5-1.1-0.8-1.7c-0.8-1.6-1.6-3.2-2.5-4.8l-0.8-1.5c1.4-0.3,2.8-0.8,4.1-1.5c1.1-0.7,1.8-1.9,1.9-3.1
		c0.1-1.2-0.8-2.2-1.9-2.2c-0.2,0-0.3,0-0.5,0c-1.8,0.2-3.3,3-3.6,4.6c0,0.1-0.2,1.8-0.2,2.2c-0.6-1.1-1.1-2.1-1.6-3.2
		c-0.7-1.5-1.3-2.9-1.7-4.5c1.4-0.3,2.8-0.8,4.1-1.5c1.1-0.7,1.8-1.9,1.9-3.1c0-1.2-0.9-2.1-2.1-2.1c-0.1,0-0.1,0-0.2,0
		c-1.8,0.2-3.3,3-3.6,4.6c0,0.1-0.2,1.9-0.2,2.2l-0.1-0.3c-0.4-1.5-0.7-3.1-0.9-4.7c-0.1-0.9-0.1-1.7-0.2-2.5c1.4-0.1,2.8-0.5,4.2-1
		c1.1-0.6,2-1.7,2.3-2.9c0.2-1.1-0.6-2.2-1.8-2.4c-0.1,0-0.1,0-0.2,0c-1.8,0-3.6,2.6-4.1,4.1c0,0.1-0.2,1-0.3,1.6c0-0.4,0-0.8,0-1.1
		c0-1.3,0.1-2.6,0.2-3.7c0-0.6,0.1-1.2,0.2-1.7c1.2-0.8,2.3-1.7,3.2-2.8c0.7-1.1,1-2.4,0.7-3.6c-0.4-1.1-1.6-1.7-2.7-1.3
		c-0.1,0-0.1,0.1-0.2,0.1c-1.6,0.8-2,4-1.7,5.5c0,0.1,0.6,2.2,0.6,2.2l0,0c-0.1,0.5-0.1,1-0.2,1.6c-0.1,1.1-0.2,2.3-0.2,3.7
		c-0.1,1.5,0,2.9,0.1,4.4c0.1,1.6,0.4,3.2,0.8,4.8v0c-0.3-0.4-1.1-1.6-1.2-1.7c-1-1.2-3.7-2.9-5.4-2.2c-1.1,0.5-1.5,1.7-1,2.8
		c0,0.1,0.1,0.1,0.1,0.2C14.5,246.5,15.7,247.2,17,247.3z M34.6,270.5c1.1,0.9,2.3,1.7,3.5,2.3c-0.3,0.8-0.6,1.5-1,2.2
		c-1.1,2.5-2,4.5-2.8,5.9c-0.1,0.3-0.3,0.5-0.4,0.8h-0.1c0-0.3,0-0.6-0.1-0.9c-0.2-1.6-0.6-3.8-1.1-6.4c-0.2-0.8-0.4-1.7-0.6-2.6
		C33,271.3,33.8,271,34.6,270.5z"/>
	<path class="st6" d="M47.4,239c0,0,0.6-2.1,0.6-2.2c0.2-1.6-0.3-4.7-1.9-5.5c-1.1-0.5-2.3,0-2.8,1.1c0,0.1-0.1,0.1-0.1,0.2
		c-0.3,1.3,0,2.6,0.8,3.6C45,237.2,46.2,238.2,47.4,239z"/>
</g>
<g id="freepik--Desk--inject-11">
	<line class="st30" x1="19.9" y1="294.2" x2="393.2" y2="294.2"/>
</g>
</svg>
