<?xml version="1.0" encoding="utf-8"?>
<!-- Generator: Adobe Illustrator 24.2.3, SVG Export Plug-In . SVG Version: 6.00 Build 0)  -->
<svg version="1.1" id="Layer_1" xmlns="http://www.w3.org/2000/svg" xmlns:xlink="http://www.w3.org/1999/xlink" x="0px" y="0px"
	 viewBox="0 0 446 428" style="enable-background:new 0 0 446 428;" xml:space="preserve">
<style type="text/css">
	.st0{fill:#F0F0F0;}
	.st1{fill:#E0E0E0;}
	.st2{fill:#111D5E;}
	.st3{opacity:0.2;enable-background:new    ;}
	.st4{fill:#FFFFFF;}
	.st5{fill:#455A64;}
	.st6{fill:#37474F;}
	.st7{fill:#263238;}
	.st8{fill:#FAFAFA;}
	.st9{fill:#F28F8F;}
	.st10{opacity:0.1;enable-background:new    ;}
	.st11{fill:#FFA8A7;}
	.st12{opacity:0.2;}
	.st13{fill:#F5F5F5;}
	.st14{fill:#EBEBEB;}
	.st15{opacity:0.7;}
	.st16{opacity:0.3;fill:#FFFFFF;enable-background:new    ;}
</style>
<g id="freepik--Floor--inject-1--inject-91">
	<path class="st0" d="M71.4,386c83.8,43.8,219.6,43.8,303.4,0s83.8-114.7,0-158.5s-219.6-43.8-303.4,0S-12.4,342.3,71.4,386z"/>
</g>
<g id="freepik--Shadow--inject-1--inject-91">
	<path class="st1" d="M392.9,267.9c-12.7,6-33.3,6-46,0s-12.7-15.9,0-21.9s33.3-6,46,0S405.6,261.8,392.9,267.9z"/>
</g>
<g id="freepik--Plants--inject-1--inject-91">
	<path class="st2" d="M62.6,302.9c0,0,1-14.7-4.1-27.3s-13.7-21.3-22.8-23.7s-18.1,4.7-9.3,12.3s25.2,16.8,29.3,40L62.6,302.9z"/>
	<path class="st3" d="M62.6,302.9c0,0,1-14.7-4.1-27.3s-13.7-21.3-22.8-23.7s-18.1,4.7-9.3,12.3s25.2,16.8,29.3,40L62.6,302.9z"/>
	<path class="st4" d="M59.3,304L59.3,304c-0.3,0-0.5-0.2-0.5-0.5c0.6-17.4-11.9-42.1-28.9-47.8c-0.3-0.1-0.4-0.4-0.3-0.6
		c0.1-0.3,0.4-0.4,0.6-0.3c17.4,5.9,30.2,31.1,29.6,48.8C59.8,303.8,59.6,304,59.3,304C59.3,304,59.3,304,59.3,304z"/>
	<path class="st2" d="M59.9,338.3c-1.5,0.8-3.2,1.3-4.9,1.3c-2,0.1-4-0.2-5.9-0.9c-3.3-1.3-6.1-3.2-7-6.8c-0.7-2.9,0.4-6.1-0.9-8.8
		s-5-4.4-7.5-5.2c-1.8-0.6-3.7-0.9-5.4-1.5c-1.8-0.6-3.3-1.9-4.2-3.6c-1.7-4.1,2.9-8.8,1.4-13.1c-0.8-2.1-2.8-3.4-4.7-4.6
		s-3.9-2.6-4.4-4.8c-0.3-2,0.4-4.1,1.9-5.5c3.4-3.5,9-3.8,13.5-2.1c1.4,0.6,2.8,1.2,4.3,1.6c5.7,1.5,11.7-2.2,17.4-0.9
		c3.7,0.9,6.6,3.9,7.5,7.6c0.3,1.2,0.3,2.5,0.6,3.8c0.7,3.1,4,3.8,4.8,7c0.7,2.9-0.2,5.9-0.7,8.8c-0.8,4.4-1.6,8.7-2.5,13.1
		c-0.5,2.4-1,4.7-1.5,7.1c-0.5,2.2,0.2,4.5-0.8,6.5C60.6,337.8,60.2,338,59.9,338.3z"/>
	<path class="st4" d="M61.5,322.9c-0.2,0-0.5-0.2-0.5-0.4c-2.4-15.5-24.2-33.9-38.2-35.8c-0.3,0-0.5-0.3-0.4-0.6
		c0-0.3,0.3-0.5,0.6-0.4c14.3,1.9,36.6,20.7,39,36.6C62,322.6,61.8,322.8,61.5,322.9C61.6,322.9,61.6,322.9,61.5,322.9L61.5,322.9z"
		/>
	<path class="st4" d="M48.7,301.6L48.7,301.6c-0.3,0-0.5-0.3-0.4-0.5c0.9-10.1,4.5-13.9,4.7-14.1c0.2-0.2,0.5-0.2,0.7-0.1
		c0.2,0.2,0.2,0.5,0.1,0.7c0,0,0,0-0.1,0.1c0,0-3.6,3.8-4.4,13.5C49.2,301.5,49,301.7,48.7,301.6z"/>
	<path class="st4" d="M33.2,309.7c-0.2,0-0.4-0.1-0.5-0.3c-0.1-0.2,0-0.5,0.3-0.6c0,0,0,0,0,0c0.5-0.2,11.3-4.8,20.9-2.2
		c0.3,0.1,0.4,0.4,0.4,0.6c-0.1,0.3-0.4,0.4-0.6,0.4c-9.2-2.5-20.1,2.1-20.2,2.1C33.3,309.7,33.3,309.7,33.2,309.7z"/>
</g>
<g id="freepik--Window--inject-1--inject-91">
	<path class="st5" d="M60.6,134.8v204.1c0.1,1.2,0.7,2.3,1.7,3l4.6,2.7c1.1,0.6,2.4,0.6,3.5,0l215.9-124.7c1-0.7,1.7-1.8,1.7-3V12.8
		c-0.1-3-1.6-5.7-4.1-7.4c-2.7-1.3-5.8-1.2-8.4,0.2L65,127.3C62.4,128.9,60.8,131.7,60.6,134.8z"/>
	<path class="st6" d="M72.8,136.8l-10.9-6.3c-0.8,1.3-1.2,2.8-1.3,4.3v204.1c0.1,1.2,0.7,2.3,1.7,3l4.6,2.7c1.1,0.6,2.4,0.6,3.5,0
		l2.3-1.4L72.8,136.8z"/>
	<path class="st6" d="M283.8,10.3L73.1,132c-2.6,1.7-4.2,4.5-4.3,7.5v204c0,1.1,0.8,1.5,1.7,1l215.9-124.7c1-0.7,1.7-1.8,1.7-3V12.8
		C288.1,10.1,286.2,9,283.8,10.3z"/>
	<path class="st7" d="M283.8,10.3L73.1,132c-2.6,1.7-4.2,4.5-4.3,7.5v204c0,1.1,0.8,1.5,1.7,1l215.9-124.7c1-0.7,1.7-1.8,1.7-3V12.8
		C288.1,10.1,286.2,9,283.8,10.3z"/>
	<path class="st6" d="M288.1,21.9v-9.1c0-2.8-1.9-3.9-4.3-2.5L73.1,132c-2.6,1.7-4.2,4.5-4.3,7.5v9.1L288.1,21.9z"/>
	<path class="st8" d="M279.3,23.3c-0.1,0-0.1,0-0.2,0c-0.2-0.1-0.3-0.3-0.2-0.5c0,0,0,0,0,0l1.5-3.3c0.1-0.2,0.4-0.2,0.5-0.1
		c0.1,0.1,0.2,0.3,0.2,0.4l-1.5,3.3C279.6,23.2,279.5,23.3,279.3,23.3z"/>
	<path class="st8" d="M279.2,23.5c-0.1,0-0.1,0-0.2,0c-0.1-0.1-0.2-0.2-0.2-0.4L279,21c0-0.2,0.2-0.4,0.4-0.3c0,0,0,0,0,0
		c0.2,0,0.4,0.2,0.3,0.4c0,0,0,0,0,0l-0.1,1.2l0.6-0.5c0.2-0.1,0.4-0.1,0.5,0.1c0.1,0.1,0.1,0.4,0,0.5l-1.3,1
		C279.4,23.4,279.3,23.5,279.2,23.5z"/>
	<path class="st8" d="M281.5,18.7c-0.1,0-0.1,0-0.2,0c-0.2-0.1-0.3-0.3-0.2-0.5c0,0,0,0,0,0l1.5-3.3c0.1-0.2,0.3-0.3,0.5-0.2
		c0,0,0,0,0,0c0.2,0.1,0.3,0.3,0.2,0.5c0,0,0,0,0,0l-1.5,3.3C281.7,18.6,281.6,18.7,281.5,18.7z"/>
	<path class="st8" d="M282.9,17.3L282.9,17.3c-0.2,0-0.4-0.2-0.3-0.4c0,0,0,0,0,0l0.1-1.2l-0.6,0.5c-0.2,0.1-0.4,0.1-0.5-0.1
		c-0.1-0.2-0.1-0.4,0.1-0.5l1.3-1c0.1-0.1,0.3-0.1,0.4,0c0.1,0.1,0.2,0.2,0.2,0.4l-0.2,2C283.3,17.2,283.1,17.3,282.9,17.3z"/>
	<path class="st8" d="M78.9,133.3c-1.2,0.8-1.9,2.1-2,3.5c0,1.3,0.9,1.8,2,1.2c1.2-0.8,1.9-2.1,2-3.5
		C80.9,133.2,80,132.6,78.9,133.3z"/>
	<path class="st8" d="M87,128.6c-1.2,0.8-1.9,2.1-2,3.5c0,1.3,0.9,1.8,2,1.2c1.2-0.8,1.9-2.1,2-3.5C89.1,128.5,88.2,128,87,128.6z"
		/>
	<path class="st8" d="M95.2,123.9c-1.2,0.8-1.9,2.1-2,3.5c0,1.3,0.9,1.8,2,1.2c1.2-0.8,1.9-2.1,2-3.5
		C97.2,123.8,96.3,123.3,95.2,123.9z"/>
</g>
<g id="freepik--Character--inject-1--inject-91">
	<path class="st7" d="M356.2,143.3h22c1.6,0,2.9-1.3,2.9-2.9v-39.1c0-7.7-6.2-13.9-13.9-13.9l0,0l0,0c-7.7,0-13.9,6.2-13.9,13.9
		c0,0,0,0,0,0v39.1C353.3,142,354.6,143.3,356.2,143.3C356.2,143.3,356.2,143.3,356.2,143.3z"/>
	<path class="st7" d="M378,92.8l3.4-1.8c-0.4-0.9-1.5-1.3-2.5-0.9c0,0-0.1,0-0.1,0C377.9,90.7,377.5,91.9,378,92.8z"/>
	<path class="st7" d="M377.8,93.2l3.6,1.3c0.4-0.9,0-2-1-2.4c0,0-0.1,0-0.1,0C379.3,91.7,378.2,92.2,377.8,93.2z"/>
	<path class="st9" d="M351.4,118.7l-10.2-0.3c-0.7-0.6-11.4-12.7-11.4-12.7s-3.9,6.1-3.9,6.5s10.5,11.7,11.6,12.9
		c0.6,0.8,1.5,1.2,2.5,1.2c2.8,0.2,13.1,0.9,13.1,0.9L351.4,118.7z"/>
	<path class="st2" d="M365.8,128.5l-16.9-0.7c-1.5-2.1-1.5-7.5,0-9.2l18.7,0.5L365.8,128.5z"/>
	<path class="st2" d="M365.8,128.5l-16.9-0.7c-1.5-2.1-1.5-7.5,0-9.2l18.7,0.5L365.8,128.5z"/>
	<path class="st10" d="M365.8,128.5l-16.9-0.7c-1.5-2.1-1.5-7.5,0-9.2l18.7,0.5L365.8,128.5z"/>
	<path class="st9" d="M326.2,101.9c2-0.2,3.3-1.7,3.8-1.3c0.3,0.4,0.4,1,0,1.4c-0.9,0.7-1.9,1.3-3,1.7c-0.3,1-0.4,2-0.5,3.1
		c-0.2,1.5-0.1,4.6-1.4,5.6c-3.9,3.1-4.9-1.8-4.8-5.2C320.5,103.1,324.1,102.1,326.2,101.9z"/>
	<path class="st7" d="M365.1,242.2c0,0.7-0.1,1.4-0.5,1.9c-0.9,1.5-2,2.9-3.2,4.2c-1.7,1.8-4.2,4-6.1,5.6c-1,0.9-1,2.2,0.4,2.7
		c2.7,0.7,5.6,0.3,8-1.1c1.8-1,4.4-5.5,5.9-6.1c1.7-0.8,2.7-1.2,3.3-2c0.9-0.9,1.1-2.4,0.4-3.5c-0.8-1.5-2-3.9-2.5-3.6l0.2,0.5
		c-0.4,1.2-3.8,2.7-5.5,2.3L365.1,242.2z"/>
	<path class="st11" d="M363.5,236.2c0.7,2,1.2,4,1.5,6c0,0.7-0.1,1.3-0.5,1.9c-0.9,1.5-2,2.9-3.2,4.2c-0.8,0.9-1.9,1.9-2.9,2.8
		c-0.1,0.1-0.1,0.3-0.1,0.5c0,0.9,2.3,1.2,3.7,0.8c1.7-0.6,3.2-1.7,4.2-3.2c0.8-1,2.5-3,3.6-4.5c0.4-0.5,0.7-1,1-1.5
		c0.3-0.7,0.4-1.4,0.1-2.1l-0.1-0.2c-0.6-1.9-1-3.8-1.1-5.7"/>
	<path class="st11" d="M379.6,244.3c-0.3,1.7-0.4,3.5-0.4,5.3v3.9h-5.8v-6.7h-0.1c0,0-0.1-1.3-0.3-3.4"/>
	<path class="st6" d="M363.5,236.2c-3.2-10.4-10.3-28.9-11.3-32.1c-1-3.5,0.2-33.8,1.1-43.4l30.2-1.6c2.3,9.8,0.1,23.1-0.7,31.4
		c-0.8,8.1-1.7,17.5-1.7,17.5s2.4,8.2,1.7,14.8c-0.4,4.1-2.3,16.3-3.2,21.6c-2.2,0.6-4.6,0.3-6.6-0.9c-0.4-4.7-1.1-13.2-1.7-18.7
		c-1-8.4-1.3-14.5-2.2-19.3c-1.1-6.1-1.5-29.9-1.5-29.9l-3.5,27.1c1.4,2.5,2.4,5.2,3.1,8c1,3.9,2.1,18.3,2.5,24.5
		C367.9,236.1,365.7,236.5,363.5,236.2z"/>
	<path class="st7" d="M367.6,175.4c0,0-5.5-1.9-8.6-4.8c1.6,2.5,3.8,4.4,6.5,5.7l0,15.8L367.6,175.4"/>
	<path class="st2" d="M372,119.2c0,0,8.2,0.9,9.2,1.4c-5,5.5,0.3,10,0.3,10l-4.7,16.7c3.3,4.2,6.1,7.5,6.9,12.5
		c-3.5,6.2-23.2,7.1-30.5,2.4c0.6-8.6,2-14.8,1.6-17.4c-3.5-10.6-2.4-12.8-2-15.2c0.6-4.7,5.3-8.9,8-10.6h2.5L372,119.2z"/>
	<path class="st7" d="M373.3,250.6v-0.8c-0.7,2.7-2.1,5.2-4.1,7.2c-1.8,1.7-4.3,3.6-5,5.5s2.9,2.7,5.3,2.5c2.3-0.3,4.4-1.4,6-3.1
		c1.5-1.7,1.5-2.9,2.2-3.9s2.3-2,2.7-3.1c0.1-1,0-2-0.3-3c-0.3-1-0.6-2.1-0.9-2v0.6c-0.8,0.7-1.8,1-2.9,1
		C375.4,251.4,373.3,251.2,373.3,250.6z"/>
	<path class="st11" d="M379.1,250.4c-0.8,0.7-1.8,1-2.9,1c-0.9,0-2.9-0.1-2.9-0.8v-0.8c-0.7,2.7-2.1,5.2-4.1,7.2l-1.4,1.2
		c-1,1.1-0.7,2,1.6,2.2s4.3-1.2,6-3.3C376.9,255.1,378.1,252.8,379.1,250.4z"/>
	<path class="st11" d="M357.9,94.2c-1.5,0.9-3.3,4.6-3.1,12.3c0.1,6.6,2.3,8.2,3.4,8.7s3.1,0.2,5.1-0.1v3.9c0,0-2.8,3.2-2.6,5
		s4,2.2,6.6,0.5c1.9-1.5,3.5-3.2,4.8-5.2v-9.1c0,0,1.2,1.1,3.2-0.6c1.6-1.4,2.2-3.9,0.9-5.2c-1.2-1.1-3-1-4.1,0.2
		c-0.2,0.2-0.4,0.5-0.5,0.7c0,0-1.1-3.1-5.7-4.6C361.6,99.3,359.3,97.7,357.9,94.2z"/>
	<path class="st7" d="M362.1,104.8c0,0.5,0.3,0.9,0.8,0.9c0,0,0,0,0,0c0.5,0,0.9-0.3,0.9-0.8c0-0.5-0.3-0.9-0.8-0.9
		C362.6,104,362.1,104.3,362.1,104.8C362.1,104.8,362.1,104.8,362.1,104.8z"/>
	<path class="st9" d="M361.9,110.4L360,111c0.1,0.5,0.7,0.8,1.2,0.7c0,0,0,0,0,0C361.8,111.5,362,110.9,361.9,110.4z"/>
	<path class="st7" d="M355.3,102.3l1.7-1.2c-0.3-0.5-0.9-0.6-1.4-0.3c0,0,0,0,0,0C355.1,101.2,355,101.8,355.3,102.3z"/>
	<path class="st7" d="M364.5,102.9l-1.7-1.2c0.3-0.5,0.9-0.6,1.4-0.3c0,0,0,0,0,0C364.7,101.8,364.8,102.4,364.5,102.9z"/>
	<path class="st7" d="M355.7,104.2c0,0.5,0.3,0.9,0.8,0.9c0,0,0,0,0,0c0.5,0,0.9-0.3,0.9-0.8s-0.3-0.9-0.8-0.9
		C356.2,103.4,355.8,103.7,355.7,104.2C355.7,104.2,355.7,104.2,355.7,104.2z"/>
	<polygon class="st9" points="359.6,103.8 359.5,108.7 356.9,107.9 	"/>
	<path class="st9" d="M363.2,115c2.1-0.3,6.5-1.5,7.1-3.2c-0.3,0.9-0.8,1.6-1.5,2.2c-1.3,1.1-5.6,2.4-5.6,2.4L363.2,115z"/>
	<polygon class="st2" points="378.9,139.9 372.4,150.1 376.8,147.3 	"/>
	<g class="st12">
		<polygon points="378.9,139.9 372.4,150.1 376.8,147.3 		"/>
	</g>
	<path class="st1" d="M87.3,356.3l-0.6-0.3c-1-0.7-1.7-1.8-1.7-3V183.4c0.1-1.2,0.7-2.3,1.7-3L197,116.7c1-0.7,1.7-1.8,1.7-3v-10.1
		c0.1-1.2,0.7-2.3,1.7-3l49.3-28.5c1.1-0.6,2.4-0.6,3.5,0l0.6,0.3c1,0.7,1.7,1.8,1.7,3v5.4c0,1.1,0.8,1.6,1.7,1l45.3-26.1
		c1.1-0.6,2.4-0.6,3.5,0l0.6,0.3c1,0.7,1.7,1.8,1.7,3v169.5c-0.1,1.2-0.7,2.3-1.7,3L90.8,356.3C89.7,356.8,88.4,356.8,87.3,356.3z"
		/>
	<path class="st13" d="M89.1,355.3V185.7c0.1-1.2,0.7-2.3,1.7-3l110.3-63.7c1-0.7,1.7-1.8,1.7-3V106c0.1-1.2,0.7-2.3,1.7-3
		l49.3-28.5c1-0.6,1.7-0.1,1.7,1v10.1c0,1.1,0.8,1.6,1.7,1l49.3-28.5c1-0.6,1.7-0.1,1.7,1v169.5c-0.1,1.2-0.7,2.3-1.7,3L90.8,356.3
		C89.8,356.8,89.1,356.4,89.1,355.3z"/>
	<path class="st6" d="M85,194v1.5l4.1,2.4L308.4,71.2V59.1c-0.1-1.2-0.7-2.3-1.7-3l-0.6-0.3c-1.1-0.6-2.4-0.6-3.5,0l-45.3,26.1
		c-1,0.6-1.7,0.1-1.7-1v-5.4c-0.1-1.2-0.7-2.3-1.7-3l-0.6-0.3c-1.1-0.6-2.4-0.6-3.5,0l-49.3,28.5c-1,0.7-1.7,1.8-1.7,3v10.1
		c-0.1,1.2-0.7,2.3-1.7,3L86.7,180.4c-1,0.7-1.7,1.8-1.7,3V194z"/>
	<path class="st8" d="M85,194v1.5l4.1,2.4L308.4,71.2V59.1c-0.1-1.2-0.7-2.3-1.7-3l-0.6-0.3c-1.1-0.6-2.4-0.6-3.5,0l-45.3,26.1
		c-1,0.6-1.7,0.1-1.7-1v-5.4c-0.1-1.2-0.7-2.3-1.7-3l-0.6-0.3c-1.1-0.6-2.4-0.6-3.5,0l-49.3,28.5c-1,0.7-1.7,1.8-1.7,3v10.1
		c-0.1,1.2-0.7,2.3-1.7,3L86.7,180.4c-1,0.7-1.7,1.8-1.7,3V194z"/>
	<path class="st1" d="M206.9,120.4v-14.1l-7.6-4.4c-0.3,0.5-0.5,1.1-0.5,1.7v10.1c0,0.6-0.2,1.2-0.5,1.7L206.9,120.4z"/>
	<path class="st1" d="M93.1,186.1l-7.6-4.4c-0.3,0.5-0.5,1.1-0.5,1.7v12.1l4.1,2.4L93.1,186.1z"/>
	<path class="st14" d="M201.1,119.1L90.8,182.7c-1,0.7-1.7,1.8-1.7,3v12.1L308.4,71.2V59.1c0-1.1-0.8-1.6-1.7-1l-49.4,28.5
		c-1,0.6-1.7,0.1-1.7-1V75.5c0-1.1-0.8-1.6-1.7-1L204.5,103c-1,0.7-1.7,1.8-1.7,3v10.1C202.7,117.3,202.1,118.4,201.1,119.1z"/>
	<g class="st15">
		<path class="st1" d="M99.8,183.7l-3.6,2l1.4-2.3c0.2-0.2,0.1-0.5-0.1-0.7c-0.2-0.2-0.5-0.1-0.7,0.1c0,0,0,0.1-0.1,0.1l-2.3,4
			c-0.1,0.1-0.1,0.3,0,0.4c0,0.1,0.1,0.2,0.2,0.3l2.3,1.3c0.1,0,0.2,0.1,0.2,0.1c0.2,0,0.3-0.1,0.4-0.3c0.1-0.2,0-0.5-0.2-0.7
			l-1.6-0.9l4.4-2.6c0.2-0.1,0.3-0.4,0.2-0.7S100.1,183.5,99.8,183.7L99.8,183.7z"/>
		<path class="st1" d="M108.1,179.6c0-0.1-0.1-0.2-0.2-0.3l-2.3-1.3c-0.2-0.1-0.5,0-0.7,0.2c-0.1,0.2,0,0.5,0.2,0.7l1.5,0.9
			l-4.4,2.6c-0.2,0.1-0.3,0.4-0.2,0.7c0.1,0.2,0.3,0.3,0.4,0.2c0.1,0,0.2,0,0.2-0.1l3.6-2.1l-1.4,2.3c-0.1,0.2-0.1,0.5,0.2,0.7
			c0.1,0,0.2,0.1,0.2,0.1c0.2,0,0.3-0.1,0.4-0.2l2.3-4C108.1,179.9,108.1,179.7,108.1,179.6z"/>
	</g>
	<path class="st1" d="M115.6,173.1l158.2-91.3c1.2-0.7,2.2-0.2,2.2,1.1c-0.1,1.5-0.9,2.8-2.2,3.6l-158.2,91.3
		c-1.2,0.7-2.2,0.2-2.2-1.1C113.5,175.2,114.4,173.9,115.6,173.1z"/>
	<path class="st8" d="M282,77c1.1-0.7,2-0.1,2,1.2c-0.1,1.4-0.8,2.7-2,3.5c-1.1,0.7-2,0.1-2-1.2C280.1,79.1,280.8,77.8,282,77z"/>
	<path class="st8" d="M290.1,72.3c1.1-0.7,2-0.1,2,1.2c-0.1,1.4-0.8,2.7-2,3.5c-1.1,0.7-2,0.1-2-1.2C288.2,74.4,289,73.1,290.1,72.3
		z"/>
	<path class="st8" d="M298.3,67.6c1.1-0.7,2-0.1,2,1.2c-0.1,1.4-0.8,2.7-2,3.5c-1.1,0.7-2,0.1-2-1.2
		C296.3,69.7,297.1,68.4,298.3,67.6z"/>
	<g class="st15">
		<path class="st1" d="M215,104c0,1.3,1,1.8,2.2,1.1l24.1-13.9c1.3-0.8,2.1-2.1,2.2-3.6c0-1.3-1-1.8-2.2-1.1l-24.1,13.9
			C215.9,101.2,215.1,102.5,215,104z"/>
		<path class="st2" d="M208.9,105.1c-1.2,0.8-1.9,2.1-2,3.5c0,1.3,0.9,1.8,2,1.2c1.2-0.8,1.9-2.1,2-3.5
			C210.9,105,210,104.5,208.9,105.1z"/>
		<path class="st1" d="M251.5,85.7c-0.1,0-0.2,0-0.2-0.1l-4.1-2.3c-0.3-0.1-0.4-0.4-0.2-0.7c0.1-0.3,0.4-0.4,0.7-0.2
			c0,0,0.1,0,0.1,0.1l4.1,2.3c0.2,0.1,0.3,0.4,0.2,0.7C251.9,85.6,251.7,85.7,251.5,85.7z"/>
		<path class="st1" d="M247.5,88.1c-0.1,0-0.2,0-0.2-0.1c-0.2-0.1-0.3-0.4-0.2-0.7c0,0,0,0,0,0l4.1-7c0.1-0.3,0.4-0.4,0.7-0.2
			c0.3,0.1,0.4,0.4,0.2,0.7c0,0,0,0.1-0.1,0.1l-4.1,7C247.8,88,247.7,88.1,247.5,88.1z"/>
	</g>
	<path class="st1" d="M99.5,363.3l-0.6-0.4c-1-0.7-1.7-1.8-1.7-3V190.4c0.1-1.2,0.7-2.3,1.7-3l57.5-33.2c1-0.7,1.7-1.8,1.7-3v-10.1
		c0.1-1.2,0.7-2.3,1.7-3l49.3-28.5c1.1-0.6,2.4-0.6,3.5,0l0.6,0.4c1,0.7,1.7,1.8,1.7,3v5.4c0,1.1,0.8,1.6,1.7,1l98.1-56.6
		c1.1-0.5,2.4-0.5,3.5,0l0.6,0.3c1,0.7,1.7,1.8,1.7,3v169.6c-0.1,1.2-0.7,2.3-1.7,3L103,363.3C101.9,363.9,100.6,363.9,99.5,363.3z"
		/>
	<path class="st8" d="M101.2,362.3V192.8c0.1-1.2,0.7-2.3,1.7-3l57.5-33.2c1-0.7,1.7-1.8,1.7-3v-10.1c0.1-1.2,0.7-2.3,1.7-3
		l49.3-28.5c1-0.6,1.7-0.1,1.7,1v10.1c0,1.1,0.8,1.6,1.7,1l102.1-59c1-0.6,1.7-0.1,1.7,1v169.6c-0.1,1.2-0.7,2.3-1.7,3L103,363.3
		C102,363.9,101.2,363.4,101.2,362.3z"/>
	<path class="st0" d="M97.2,201v1.5l4.1,2.3L320.6,78.2V66.1c-0.1-1.2-0.7-2.3-1.7-3l-0.6-0.3c-1.1-0.5-2.4-0.5-3.5,0l-98.1,56.6
		c-1,0.6-1.7,0.1-1.7-1V113c-0.1-1.2-0.7-2.3-1.7-3l-0.6-0.4c-1.1-0.6-2.4-0.6-3.5,0l-49.3,28.5c-1,0.7-1.7,1.8-1.7,3v10.1
		c-0.1,1.2-0.7,2.3-1.7,3l-57.5,33.2c-1,0.7-1.7,1.8-1.7,3L97.2,201z"/>
	<path class="st1" d="M166.2,157.9v-14.1l-7.6-4.4c-0.3,0.5-0.5,1.1-0.5,1.7v10.1c0,0.6-0.2,1.2-0.5,1.7L166.2,157.9z"/>
	<path class="st1" d="M105.3,193.1l-7.6-4.4c-0.3,0.5-0.5,1.1-0.5,1.7v12.1l4.1,2.3L105.3,193.1z"/>
	<path class="st1" d="M160.4,156.6L103,189.8c-1,0.7-1.7,1.8-1.7,3v12.1L320.6,78.2V66.1c0-1.1-0.8-1.6-1.7-1l-102.1,59
		c-1,0.6-1.7,0.1-1.7-1V113c0-1.1-0.8-1.6-1.7-1l-49.3,28.5c-1,0.7-1.7,1.8-1.7,3v10.1C162.1,154.8,161.5,155.9,160.4,156.6z"/>
	<g class="st15">
		<path class="st1" d="M112,190.7l-3.6,2.1l1.4-2.3c0.2-0.2,0.1-0.5-0.1-0.7s-0.5-0.1-0.7,0.1c0,0,0,0.1-0.1,0.1l-2.3,4
			c-0.1,0.1-0.1,0.3-0.1,0.4c0,0.1,0.1,0.2,0.2,0.3l2.3,1.3c0.1,0,0.2,0.1,0.2,0.1c0.3,0,0.5-0.2,0.5-0.5c0-0.2-0.1-0.3-0.2-0.4
			l-1.5-0.9l4.4-2.6c0.2-0.2,0.3-0.5,0.1-0.7C112.5,190.7,112.2,190.7,112,190.7L112,190.7z"/>
		<path class="st1" d="M120.3,186.6c0-0.1-0.1-0.2-0.2-0.3l-2.3-1.3c-0.2-0.1-0.5,0-0.7,0.2c-0.1,0.2,0,0.5,0.2,0.7l1.6,0.9
			l-4.4,2.6c-0.2,0.1-0.3,0.4-0.2,0.7c0.1,0.2,0.3,0.2,0.4,0.2c0.1,0,0.2,0,0.2-0.1l3.6-2.1l-1.4,2.3c-0.1,0.2-0.1,0.5,0.2,0.7
			c0,0,0,0,0,0c0.1,0,0.2,0.1,0.2,0.1c0.2,0,0.3-0.1,0.4-0.2l2.3-4C120.3,186.9,120.3,186.8,120.3,186.6z"/>
	</g>
	<path class="st1" d="M127.8,180.1l158.2-91.3c1.2-0.7,2.2-0.2,2.2,1.1c-0.1,1.5-0.9,2.8-2.2,3.6l-158.2,91.3
		c-1.2,0.7-2.2,0.2-2.2-1.1C125.7,182.2,126.5,180.9,127.8,180.1z"/>
	<path class="st8" d="M294.2,84c1.1-0.6,2-0.1,2,1.2c-0.1,1.4-0.8,2.7-2,3.5c-1.1,0.7-2,0.1-2-1.2C292.3,86.1,293,84.8,294.2,84z"/>
	<path class="st8" d="M302.3,79.3c1.1-0.6,2-0.1,2,1.2c-0.1,1.4-0.8,2.7-2,3.5c-1.1,0.7-2,0.1-2-1.2
		C300.4,81.4,301.1,80.1,302.3,79.3z"/>
	<path class="st8" d="M310.5,74.7c1.1-0.6,2-0.1,2,1.2c-0.1,1.4-0.8,2.7-2,3.5c-1.1,0.7-2,0.1-2-1.2
		C308.5,76.8,309.3,75.5,310.5,74.7z"/>
	<g class="st15">
		<path class="st1" d="M174.4,141.5c0,1.3,1,1.8,2.2,1.1l24.1-13.9c1.3-0.8,2.1-2.1,2.2-3.6c0-1.3-1-1.8-2.2-1.1l-24.1,13.9
			C175.3,138.7,174.5,140,174.4,141.5z"/>
		<path class="st2" d="M168.3,142.7c-1.2,0.8-1.9,2.1-2,3.5c0,1.3,0.9,1.8,2,1.2c1.2-0.8,1.9-2.1,2-3.5
			C170.3,142.6,169.4,142,168.3,142.7z"/>
		<path class="st1" d="M210.9,123.2c-0.1,0-0.2,0-0.2-0.1l-4.1-2.3c-0.2-0.1-0.3-0.4-0.2-0.7s0.4-0.3,0.7-0.2l4.1,2.4
			c0.2,0.1,0.3,0.4,0.2,0.7C211.3,123.1,211.1,123.2,210.9,123.2z"/>
		<path class="st1" d="M206.9,125.6c-0.1,0-0.2,0-0.2-0.1c-0.2-0.1-0.3-0.4-0.2-0.7l4.1-7c0.1-0.3,0.4-0.4,0.7-0.2s0.4,0.4,0.2,0.7
			c0,0,0,0.1-0.1,0.1l-4.1,7C207.2,125.5,207,125.6,206.9,125.6z"/>
	</g>
	<path class="st1" d="M111.7,370.3l-0.6-0.3c-1-0.7-1.7-1.8-1.7-3V197.4c0.1-1.2,0.7-2.3,1.7-3l4.7-2.7c1-0.7,1.7-1.8,1.7-3v-10.1
		c0.1-1.2,0.7-2.3,1.7-3l49.3-28.5c1.1-0.6,2.4-0.6,3.5,0l0.6,0.4c1,0.7,1.7,1.8,1.7,3v5.4c0,1.1,0.8,1.6,1.7,1L327,69.8
		c1.1-0.6,2.4-0.6,3.5,0l0.6,0.3c1,0.7,1.7,1.8,1.7,3v169.5c-0.1,1.2-0.7,2.3-1.7,3L115.2,370.3
		C114.1,370.9,112.8,370.9,111.7,370.3z"/>
	<path class="st8" d="M113.4,369.3V199.8c0.1-1.2,0.7-2.3,1.7-3l4.7-2.7c1-0.7,1.7-1.8,1.7-3V181c0.1-1.2,0.7-2.3,1.7-3l49.3-28.5
		c1-0.6,1.7-0.1,1.7,1v10.1c0,1.1,0.8,1.6,1.7,1l155-89.5c1-0.6,1.7-0.1,1.7,1v169.6c-0.1,1.2-0.7,2.3-1.7,3L115.2,370.3
		C114.2,370.9,113.4,370.4,113.4,369.3z"/>
	<polygon class="st2" points="113.4,211.9 113.4,244.7 332.8,118.1 332.8,85.2 	"/>
	<polygon class="st2" points="109.4,209.5 109.4,242.4 113.4,244.7 113.4,211.9 	"/>
	<polygon class="st3" points="109.4,209.5 109.4,242.4 113.4,244.7 113.4,211.9 	"/>
	<path class="st4" d="M184.6,184.8l71-41v4.7l-71,41c-1.2,0.7-2.2,0.2-2.2-1.1C182.6,186.9,183.4,185.6,184.6,184.8z"/>
	<path class="st4" d="M261.7,140.3l-6.1,3.5v4.7l6.1-3.5c1.2-0.8,1.9-2.1,2-3.5C263.7,140.2,262.8,139.7,261.7,140.3z"/>
	<path class="st2" d="M125.6,247c2.2-1.3,4.1-0.2,4.1,2.3c-0.2,2.8-1.7,5.4-4.1,7c-2.2,1.3-4.1,0.2-4.1-2.4
		C121.7,251.1,123.2,248.6,125.6,247z"/>
	<path class="st2" d="M135.9,241.1l24.1-13.9c1.2-0.7,2.2-0.2,2.2,1.1c-0.1,1.5-0.9,2.8-2.2,3.6l-24.1,13.9
		c-1.2,0.7-2.2,0.2-2.2-1.1C133.8,243.2,134.6,241.9,135.9,241.1z"/>
	<path class="st2" d="M133.8,250.5c0.1-0.7,0.5-1.4,1.1-1.8l14.1-8.1c0.6-0.4,1.1-0.1,1.1,0.5c-0.1,0.7-0.5,1.4-1.1,1.8l-14.1,8.1
		C134.2,251.5,133.8,251.2,133.8,250.5z"/>
	<path class="st16" d="M133.8,250.5c0.1-0.7,0.5-1.4,1.1-1.8l14.1-8.1c0.6-0.4,1.1-0.1,1.1,0.5c-0.1,0.7-0.5,1.4-1.1,1.8l-14.1,8.1
		C134.2,251.5,133.8,251.2,133.8,250.5z"/>
	<path class="st2" d="M125.6,265c2.2-1.3,4.1-0.2,4.1,2.3c-0.2,2.8-1.7,5.4-4.1,7c-2.2,1.3-4.1,0.2-4.1-2.4
		C121.7,269.1,123.2,266.6,125.6,265z"/>
	<path class="st2" d="M135.9,259.1l24.1-13.9c1.2-0.7,2.2-0.2,2.2,1.1c-0.1,1.5-0.9,2.8-2.2,3.6l-24.1,13.9
		c-1.2,0.7-2.2,0.2-2.2-1.1C133.8,261.2,134.6,259.9,135.9,259.1z"/>
	<path class="st2" d="M133.8,268.5c0.1-0.7,0.5-1.4,1.1-1.8l14.1-8.1c0.6-0.4,1.1-0.1,1.1,0.5c-0.1,0.7-0.5,1.4-1.1,1.8l-14.1,8.1
		C134.2,269.5,133.8,269.2,133.8,268.5z"/>
	<path class="st16" d="M133.8,268.5c0.1-0.7,0.5-1.4,1.1-1.8l14.1-8.1c0.6-0.4,1.1-0.1,1.1,0.5c-0.1,0.7-0.5,1.4-1.1,1.8l-14.1,8.1
		C134.2,269.5,133.8,269.2,133.8,268.5z"/>
	<path class="st2" d="M125.6,285c2.2-1.3,4.1-0.2,4.1,2.3c-0.2,2.8-1.7,5.4-4.1,7c-2.2,1.3-4.1,0.2-4.1-2.4
		C121.7,289.1,123.2,286.6,125.6,285z"/>
	<path class="st2" d="M135.9,279.1l24.1-13.9c1.2-0.7,2.2-0.2,2.2,1.1c-0.1,1.5-0.9,2.8-2.2,3.6l-24.1,13.9
		c-1.2,0.7-2.2,0.2-2.2-1.1C133.8,281.2,134.6,279.9,135.9,279.1z"/>
	<path class="st2" d="M133.8,288.5c0.1-0.7,0.5-1.4,1.1-1.8l14.1-8.1c0.6-0.4,1.1-0.1,1.1,0.5c-0.1,0.7-0.5,1.4-1.1,1.8l-14.1,8.1
		C134.2,289.5,133.8,289.2,133.8,288.5z"/>
	<path class="st16" d="M133.8,288.5c0.1-0.7,0.5-1.4,1.1-1.8l14.1-8.1c0.6-0.4,1.1-0.1,1.1,0.5c-0.1,0.7-0.5,1.4-1.1,1.8l-14.1,8.1
		C134.2,289.5,133.8,289.2,133.8,288.5z"/>
	<path class="st2" d="M125.6,317c2.2-1.3,4.1-0.2,4.1,2.3c-0.2,2.8-1.7,5.4-4.1,7c-2.2,1.3-4.1,0.2-4.1-2.4
		C121.7,321.1,123.2,318.6,125.6,317z"/>
	<path class="st2" d="M135.9,311.1l24.1-13.9c1.2-0.7,2.2-0.2,2.2,1.1c-0.1,1.5-0.9,2.8-2.2,3.6l-24.1,13.9
		c-1.2,0.7-2.2,0.2-2.2-1.1C133.8,313.2,134.6,311.9,135.9,311.1z"/>
	<path class="st2" d="M133.8,320.5c0.1-0.7,0.5-1.4,1.1-1.8l14.1-8.1c0.6-0.4,1.1-0.1,1.1,0.5c-0.1,0.7-0.5,1.4-1.1,1.8l-14.1,8.1
		C134.2,321.5,133.8,321.2,133.8,320.5z"/>
	<path class="st16" d="M133.8,320.5c0.1-0.7,0.5-1.4,1.1-1.8l14.1-8.1c0.6-0.4,1.1-0.1,1.1,0.5c-0.1,0.7-0.5,1.4-1.1,1.8l-14.1,8.1
		C134.2,321.5,133.8,321.2,133.8,320.5z"/>
	<path class="st2" d="M125.6,334c2.2-1.3,4.1-0.2,4.1,2.3c-0.2,2.8-1.7,5.4-4.1,7c-2.2,1.3-4.1,0.2-4.1-2.4
		C121.7,338.1,123.2,335.6,125.6,334z"/>
	<path class="st2" d="M135.9,328.1l24.1-13.9c1.2-0.7,2.2-0.2,2.2,1.1c-0.1,1.5-0.9,2.8-2.2,3.6l-24.1,13.9
		c-1.2,0.7-2.2,0.2-2.2-1.1C133.8,330.2,134.6,328.9,135.9,328.1z"/>
	<path class="st2" d="M133.8,337.5c0.1-0.7,0.5-1.4,1.1-1.8l14.1-8.1c0.6-0.4,1.1-0.1,1.1,0.5c-0.1,0.7-0.5,1.4-1.1,1.8l-14.1,8.1
		C134.2,338.5,133.8,338.2,133.8,337.5z"/>
	<path class="st16" d="M133.8,337.5c0.1-0.7,0.5-1.4,1.1-1.8l14.1-8.1c0.6-0.4,1.1-0.1,1.1,0.5c-0.1,0.7-0.5,1.4-1.1,1.8l-14.1,8.1
		C134.2,338.5,133.8,338.2,133.8,337.5z"/>
	<path class="st1" d="M117.5,312v0.1c0,0.3,0.2,0.5,0.5,0.3l23.3-13.5c0.3-0.2,0.5-0.5,0.5-0.9v-0.1c0-0.3-0.2-0.5-0.5-0.3
		L118,311.1C117.7,311.3,117.5,311.6,117.5,312z"/>
	<path class="st2" d="M176.5,217.6l109.4-63.2c1.2-0.7,2.2-0.1,2.2,1.2v41.9c-0.1,1.5-0.9,2.9-2.2,3.8l-109.4,63.2
		c-1.2,0.7-2.2,0.1-2.2-1.2v-41.9C174.4,219.9,175.2,218.5,176.5,217.6z"/>
	<path class="st13" d="M182.5,221.2c0,1.3,1,1.8,2.2,1.1l26.3-15.2c1.3-0.8,2.1-2.1,2.2-3.6c0-1.3-1-1.8-2.2-1.1l-26.3,15.2
		C183.4,218.4,182.6,219.8,182.5,221.2z"/>
	<path class="st13" d="M215.9,201.9c0,1.3,1,1.8,2.2,1.1l26.3-15.2c1.2-0.8,2.1-2.1,2.2-3.6c0-1.3-1-1.8-2.2-1.1l-26.3,15.2
		C216.8,199.1,216,200.5,215.9,201.9z"/>
	<path class="st13" d="M249.4,182.6c0,1.3,1,1.8,2.2,1.1l26.3-15.2c1.3-0.8,2.1-2.1,2.2-3.6c0-1.3-1-1.8-2.2-1.1L251.5,179
		C250.3,179.8,249.5,181.1,249.4,182.6z"/>
	<path class="st13" d="M182.5,254.1c0,1.3,1,1.8,2.2,1.1l93.2-53.8c1.3-0.8,2.1-2.1,2.2-3.6c0-1.3-1-1.8-2.2-1.1l-93.2,53.8
		C183.4,251.3,182.6,252.6,182.5,254.1z"/>
	<path class="st13" d="M184.2,227.3l94-54.3c1-0.6,1.7-0.1,1.7,1v14.8c-0.1,1.2-0.7,2.3-1.7,3l-94,54.3c-0.9,0.5-1.7,0.1-1.7-1
		v-14.8C182.6,229.1,183.2,227.9,184.2,227.3z"/>
	<path class="st2" d="M176.5,273.6l109.4-63.2c1.2-0.7,2.2-0.1,2.2,1.2v41.9c-0.1,1.5-0.9,2.9-2.2,3.8l-109.4,63.2
		c-1.2,0.7-2.2,0.1-2.2-1.2v-41.9C174.4,275.9,175.2,274.5,176.5,273.6z"/>
	<path class="st13" d="M182.5,277.2c0,1.3,1,1.8,2.2,1.1l26.3-15.2c1.3-0.8,2.1-2.1,2.2-3.6c0-1.3-1-1.8-2.2-1.1l-26.3,15.2
		C183.4,274.4,182.6,275.8,182.5,277.2z"/>
	<path class="st13" d="M215.9,257.9c0,1.3,1,1.8,2.2,1.1l26.3-15.2c1.2-0.8,2.1-2.1,2.2-3.6c0-1.3-1-1.8-2.2-1.1l-26.3,15.2
		C216.8,255.1,216,256.5,215.9,257.9z"/>
	<path class="st13" d="M249.4,238.6c0,1.3,1,1.8,2.2,1.1l26.3-15.2c1.3-0.8,2.1-2.1,2.2-3.5c0-1.3-1-1.8-2.2-1.1L251.5,235
		C250.3,235.8,249.5,237.1,249.4,238.6z"/>
	<path class="st13" d="M182.5,310.1c0,1.3,1,1.8,2.2,1.1l93.2-53.8c1.3-0.8,2.1-2.1,2.2-3.6c0-1.3-1-1.8-2.2-1.1l-93.2,53.8
		C183.4,307.3,182.6,308.6,182.5,310.1z"/>
	<path class="st13" d="M184.2,283.3l94-54.3c1-0.5,1.7-0.1,1.7,1v14.8c-0.1,1.2-0.7,2.3-1.7,3l-94,54.3c-0.9,0.5-1.7,0.1-1.7-1
		v-14.8C182.6,285.1,183.2,283.9,184.2,283.3z"/>
	<path class="st2" d="M322.5,133.4l-24.1,13.9c-1.3,0.8-2.1,2.2-2.2,3.8v23.1c0,1.4,1,1.9,2.2,1.2l24.1-13.9
		c1.3-0.8,2.1-2.2,2.2-3.8v-23.1C324.7,133.2,323.7,132.7,322.5,133.4z"/>
	<path class="st13" d="M303.3,149.2c1.6-1,3-0.2,3,1.7c-0.1,2.1-1.2,4-3,5.2c-1.6,1-3,0.2-3-1.7
		C300.4,152.2,301.5,150.3,303.3,149.2z"/>
	<path class="st13" d="M308.4,149.7c0.1-0.7,0.5-1.4,1.1-1.8l10-5.8c0.6-0.4,1.1-0.1,1.1,0.5c-0.1,0.7-0.5,1.4-1.1,1.8l-10,5.8
		C308.9,150.6,308.4,150.4,308.4,149.7z"/>
	<path class="st13" d="M301.4,159.6l18.1-10.5c0.6-0.3,1.1-0.1,1.1,0.6v6.9c0,0.8-0.4,1.5-1.1,1.9L301.4,169
		c-0.6,0.4-1.1,0.1-1.1-0.6v-6.9C300.3,160.7,300.7,160.1,301.4,159.6z"/>
	<path class="st2" d="M322.5,166.2l-24.1,13.9c-1.3,0.8-2.1,2.2-2.2,3.8v46.6c0,1.4,1,1.9,2.2,1.2l24.1-13.9
		c1.3-0.8,2.1-2.2,2.2-3.8v-46.6C324.7,166.1,323.7,165.5,322.5,166.2z"/>
	<path class="st13" d="M303.3,182c1.6-0.9,3-0.2,3,1.7c-0.1,2.1-1.2,4-3,5.2c-1.6,1-3,0.2-3-1.7C300.4,185.1,301.5,183.1,303.3,182z
		"/>
	<path class="st13" d="M308.4,182.5c0.1-0.7,0.5-1.4,1.1-1.8l10-5.8c0.6-0.3,1.1-0.1,1.1,0.6c-0.1,0.7-0.5,1.4-1.1,1.8l-10,5.8
		C308.9,183.4,308.4,183.2,308.4,182.5z"/>
	<path class="st13" d="M301.4,192.5l18.1-10.5c0.6-0.4,1.1-0.1,1.1,0.6v6.9c0,0.8-0.4,1.5-1.1,1.9l-18.1,10.5
		c-0.6,0.4-1.1,0.1-1.1-0.6v-6.9C300.3,193.6,300.7,192.9,301.4,192.5z"/>
	<path class="st13" d="M303.3,205.4c1.6-0.9,3-0.2,3,1.7c-0.1,2.1-1.2,4-3,5.2c-1.6,0.9-3,0.2-3-1.7
		C300.4,208.5,301.5,206.6,303.3,205.4z"/>
	<path class="st13" d="M308.4,206c0.1-0.7,0.5-1.4,1.1-1.8l10-5.8c0.6-0.3,1.1-0.1,1.1,0.6c-0.1,0.7-0.5,1.4-1.1,1.8l-10,5.8
		C308.9,206.9,308.4,206.6,308.4,206z"/>
	<path class="st13" d="M301.4,215.9l18.1-10.5c0.6-0.3,1.1-0.1,1.1,0.6v6.9c0,0.8-0.4,1.5-1.1,1.9l-18.1,10.5
		c-0.6,0.4-1.1,0.1-1.1-0.6v-6.9C300.3,217,300.7,216.3,301.4,215.9z"/>
	<path class="st2" d="M322.5,222.5l-24.1,13.9c-1.3,0.8-2.1,2.2-2.2,3.8v9.1c0,1.4,1,1.9,2.2,1.2l24.1-13.9c1.3-0.8,2.1-2.2,2.2-3.8
		v-9.1C324.7,222.4,323.7,221.8,322.5,222.5z"/>
	<path class="st13" d="M303.3,237.4c1.6-1,3-0.2,3,1.7c-0.1,2.1-1.2,4-3,5.2c-1.6,1-3,0.2-3-1.7
		C300.4,240.5,301.5,238.6,303.3,237.4z"/>
	<path class="st13" d="M308.4,238c0.1-0.7,0.5-1.4,1.1-1.8l10-5.8c0.6-0.4,1.1-0.1,1.1,0.5c-0.1,0.7-0.5,1.4-1.1,1.8l-10,5.8
		C308.9,238.9,308.4,238.6,308.4,238z"/>
	<path class="st13" d="M332.8,85.2V73.1c-0.1-1.2-0.7-2.3-1.7-3l-0.6-0.3c-1.1-0.6-2.4-0.6-3.5,0l-150.9,87.1c-1,0.6-1.7,0.1-1.7-1
		v-5.4c-0.1-1.2-0.7-2.3-1.7-3l-0.6-0.4c-1.1-0.6-2.4-0.6-3.5,0l-49.3,28.5c-1,0.7-1.7,1.8-1.7,3v10.1c-0.1,1.2-0.7,2.3-1.7,3
		l-4.7,2.7c-1,0.7-1.7,1.8-1.7,3v12.1l4.1,2.4L332.8,85.2z"/>
	<path class="st1" d="M121.6,193.1h0.4l1.1-13.2L118,177c-0.3,0.5-0.5,1.1-0.5,1.7v10.1c0,0.6-0.2,1.2-0.5,1.7L121.6,193.1z"/>
	<path class="st1" d="M109.9,195.7c-0.3,0.5-0.5,1.1-0.5,1.7v12.1l4.1,2.4l4.1-11.7L109.9,195.7z"/>
	<path class="st13" d="M119.8,194.1l-4.7,2.7c-1,0.7-1.7,1.8-1.7,3v12.1L332.8,85.2V73.2c0-1.1-0.8-1.6-1.7-1l-155,89.5
		c-1,0.6-1.7,0.1-1.7-1v-10.1c0-1.1-0.8-1.6-1.7-1L123.3,178c-1,0.7-1.7,1.8-1.7,3v10.1C121.5,192.3,120.8,193.4,119.8,194.1z"/>
	<path class="st1" d="M133.7,179c0,1.3,1,1.8,2.2,1.1l24.1-13.9c1.3-0.8,2.1-2.1,2.2-3.6c0-1.3-1-1.8-2.2-1.1l-24.1,13.9
		C134.7,176.2,133.9,177.5,133.7,179z"/>
	<path class="st2" d="M127.6,180.2c-1.2,0.8-1.9,2.1-2,3.5c0,1.3,0.9,1.8,2,1.2c1.2-0.8,1.9-2.1,2-3.5
		C129.7,180.1,128.8,179.6,127.6,180.2z"/>
	<path class="st1" d="M170.3,160.8c-0.1,0-0.2,0-0.2-0.1l-4.1-2.3c-0.3-0.1-0.4-0.4-0.2-0.7s0.4-0.4,0.7-0.2c0,0,0.1,0,0.1,0.1
		l4.1,2.3c0.2,0.1,0.3,0.4,0.2,0.7C170.6,160.7,170.5,160.8,170.3,160.8L170.3,160.8z"/>
	<path class="st1" d="M166.2,163.1c-0.1,0-0.2-0.1-0.2-0.1c-0.2-0.1-0.3-0.4-0.2-0.7c0,0,0,0,0,0l4.1-7c0.2-0.2,0.5-0.3,0.7-0.1
		c0.2,0.1,0.3,0.4,0.2,0.6l-4.1,7C166.6,163,166.4,163.1,166.2,163.1z"/>
	<path class="st1" d="M119.6,201.5c-0.2,0-0.3-0.1-0.4-0.2c-0.1-0.2,0-0.5,0.2-0.7l4.9-2.8c0.2-0.1,0.5-0.1,0.7,0.2s0.1,0.5-0.2,0.7
		l-4.9,2.8C119.7,201.5,119.6,201.5,119.6,201.5z"/>
	<path class="st1" d="M121.6,203c-0.1,0-0.2,0-0.2-0.1l-2.8-1.5l2.6-4.4c0.2-0.2,0.5-0.3,0.7-0.1c0.2,0.1,0.3,0.4,0.2,0.6l-2.1,3.5
		l1.9,1c0.2,0.1,0.3,0.4,0.2,0.7C121.9,202.9,121.8,203,121.6,203z"/>
	<path class="st1" d="M126.8,197.3c-0.3,0-0.5-0.2-0.5-0.5c0-0.2,0.1-0.3,0.2-0.4l4.9-2.8c0.3-0.1,0.5,0,0.7,0.2
		c0.1,0.2,0,0.5-0.2,0.6l-4.9,2.8C126.9,197.3,126.9,197.3,126.8,197.3z"/>
	<path class="st1" d="M129.7,198.3c-0.1,0-0.2,0-0.2-0.1c-0.2-0.1-0.3-0.4-0.2-0.7l2.1-3.5l-1.9-1c-0.2-0.1-0.3-0.4-0.2-0.7
		c0.1-0.2,0.4-0.3,0.7-0.2l2.8,1.5l-2.6,4.3C130,198.2,129.8,198.3,129.7,198.3z"/>
	<path class="st13" d="M140,187.2l158.1-91.3c1.2-0.7,2.2-0.2,2.2,1.1c-0.1,1.5-0.9,2.8-2.2,3.6L140,191.9c-1.2,0.7-2.2,0.2-2.2-1.1
		C137.9,189.3,138.7,187.9,140,187.2z"/>
	<path class="st8" d="M306.4,91.1c1.1-0.7,2-0.1,2,1.2c-0.1,1.4-0.8,2.7-2,3.5c-1.1,0.6-2,0.1-2-1.2
		C304.4,93.2,305.2,91.9,306.4,91.1z"/>
	<path class="st8" d="M314.5,86.4c1.1-0.7,2-0.1,2,1.2c-0.1,1.4-0.8,2.7-2,3.5c-1.1,0.7-2,0.1-2-1.2
		C312.6,88.5,313.3,87.2,314.5,86.4z"/>
	<path class="st8" d="M322.6,81.7c1.1-0.7,2-0.1,2,1.2c-0.1,1.4-0.8,2.7-2,3.5c-1.1,0.7-2,0.1-2-1.2
		C320.7,83.8,321.4,82.5,322.6,81.7z"/>
	<path class="st11" d="M376.2,122.8l-16.4,17c0,0-16.1-1.6-21.6-3.2c-1.7-0.5-3.1-2.9-3.5-4.8c-0.1-1.1-0.9-2-1.9-2.2v4
		c-0.1,1-0.6,1.5-2.1,1.6c-5.5,0.1-8.1-1.6-8.8,1.4c-0.4,1.9,0.4,4.1,4.1,5.1c5.1,1.4,8,0.7,11.1,1.5c2.4,0.6,19.2,3.8,22.5,4.5
		c1.8,0.4,3.1,0.3,5-1.6s16.1-15.2,16.1-15.2c4.4-4.4,3.1-8.9,0.6-10.2C379.8,119.9,378.1,120.8,376.2,122.8z"/>
	<path class="st2" d="M381.2,120.6c1.1,0.4,2.4,1.6,2.5,4.5s-2.1,5.6-4.6,8.6s-3.3,3.9-3.3,3.9s-6.5-2.3-7.5-7.1
		c0,0,4.9-5.1,6.3-6.8S378.6,119.5,381.2,120.6z"/>
</g>
<g id="freepik--Button--inject-1--inject-91">
	<path class="st6" d="M196.6,405.3l-32.2-18.6c-1.3-0.8-2.1-2.2-2.2-3.8v-4.4c0.1-1.5,0.9-2.9,2.2-3.8l36.3-21c1.4-0.7,3-0.7,4.3,0
		l32.2,18.6c1.3,0.8,2.1,2.2,2.2,3.8v4.4c-0.1,1.5-0.9,2.9-2.2,3.8l-36.3,21C199.5,406,197.9,406,196.6,405.3z"/>
	<path class="st7" d="M162.2,378.5v4.4c0.1,1.5,0.9,2.9,2.2,3.8l32.2,18.6c0.7,0.3,1.4,0.5,2.2,0.5v-13.3l-32.5-18.8l-1.9,1.1
		C163.1,375.6,162.3,377,162.2,378.5z"/>
	<path class="st5" d="M200.6,353.8l-36.3,21c-0.7,0.2-1.1,1-0.8,1.7c0.1,0.4,0.4,0.7,0.8,0.8l32.2,18.6c1.4,0.7,3,0.7,4.3,0l36.3-21
		c0.7-0.2,1.1-1,0.8-1.7c-0.1-0.4-0.4-0.7-0.8-0.8L205,353.8C203.6,353.1,202,353.1,200.6,353.8z"/>
	<path class="st4" d="M195.7,376.4c0.3-1.2,2.3-2.4,4.4-2.5l1.9-0.2c1.1-0.1,2-0.6,2.2-1.3s-0.6-1-1.6-1l-1.9,0.1
		c-2,0.2-4,0.8-5.7,1.8c-1.4,0.7-2.5,1.9-3,3.3l-1.8,7.2c-0.6,2.4,2.3,4.1,6.6,3.8l1.9-0.2c2-0.2,4-0.8,5.8-1.8
		c1.4-0.7,2.5-1.9,3-3.3l0.8-3.4c0.1-0.6-0.6-1-1.6-1s-2,0.6-2.2,1.3l-0.8,3.4c-0.3,1.2-2.3,2.4-4.4,2.5l-1.9,0.2
		c-2.1,0.2-3.6-0.7-3.3-1.9L195.7,376.4L195.7,376.4z M209.7,373l1.8-7.2c0.3-1.2-0.3-2.4-1.5-2.9c-1.6-0.8-3.4-1.1-5.1-0.9
		l-1.9,0.2c-2,0.2-4,0.7-5.7,1.7c-1.4,0.7-2.5,1.9-3,3.3l-0.8,3.1c-0.1,0.6,0.6,1,1.6,1s2-0.6,2.2-1.3l0.7-3.1
		c0.3-0.7,0.8-1.3,1.5-1.7c0.9-0.5,1.9-0.8,2.9-0.9l1.9-0.2c0.9-0.1,1.8,0,2.6,0.4c0.6,0.2,0.9,0.9,0.7,1.5l-1.8,7.2
		c-0.3,1.2-2.3,2.4-4.4,2.5c-1.1,0.1-2,0.7-2.2,1.3s0.6,1,1.6,1c2-0.2,4-0.8,5.8-1.8C208,375.7,209.1,374.5,209.7,373L209.7,373z"/>
</g>
<g id="freepik--speech-bubble--inject-1--inject-91">
	<path class="st1" d="M231.2,343v-4.4c0.1-1.5,0.9-2.9,2.2-3.8l101.3-58.5c1.4-0.7,3-0.7,4.3,0l32.2,18.6c1.3,0.8,2.1,2.2,2.2,3.8
		v4.4c-0.1,1.5-0.9,2.9-2.2,3.8L270,365.4c-1.4,0.7-3,0.7-4.3,0l-32.3-18.6C232.1,345.9,231.3,344.5,231.2,343z"/>
	<path class="st13" d="M373.4,302v-3.2c-0.1-1.5-0.9-2.9-2.2-3.8l-1.9-1.1l-101.5,58.6v13.3c0.8,0,1.5-0.2,2.2-0.5l50.6-29.2
		l50.6-29.2c1.3-0.8,2.1-2.2,2.2-3.8L373.4,302z"/>
	<path class="st4" d="M233.4,337.4l32.2,18.6c1.4,0.7,3,0.7,4.3,0l101.3-58.5c0.7-0.2,1.1-1,0.8-1.7c-0.1-0.4-0.4-0.7-0.8-0.8
		L339,276.4c-1.4-0.7-3-0.7-4.3,0l-101.3,58.5c-0.7,0.2-1.1,1-0.8,1.7C232.7,337,233,337.3,233.4,337.4z"/>
	<path class="st1" d="M255.6,359.6l-19.2,5c-0.6,0.2-1.2-0.2-1.3-0.8c-0.1-0.3,0-0.7,0.2-0.9l8.1-10.3L255.6,359.6z"/>
	<polygon class="st1" points="255.6,350.2 255.6,359.6 235,363.6 235,354.2 	"/>
	<path class="st4" d="M255.6,350.2l-19.2,5c-0.6,0.2-1.2-0.2-1.3-0.8c-0.1-0.3,0-0.7,0.2-0.9l8.1-10.3L255.6,350.2z"/>
	<path class="st2" d="M277.5,322.8c-1.1,0-2.1-0.3-3-0.9c-0.9-0.5-1.5-1.1-1.5-1.7s0.4-1.1,1.3-1.7c0.9-0.5,1.9-0.8,2.9-0.7
		c1.1,0,2.1,0.3,3,0.9c1,0.5,1.5,1.1,1.5,1.7s-0.4,1.2-1.3,1.7C279.5,322.6,278.5,322.9,277.5,322.8z M279.9,320.5
		c-0.1-0.3-0.4-0.7-1.1-1.1c-0.5-0.3-1.2-0.5-1.8-0.6c-0.6,0-1.1,0.1-1.6,0.4c-0.5,0.3-0.7,0.6-0.6,0.9s0.4,0.7,1,1
		c0.6,0.3,1.2,0.5,1.8,0.6c0.6,0,1.1-0.1,1.6-0.4C279.7,321.1,280,320.8,279.9,320.5z"/>
	<path class="st2" d="M286.4,321.1c-0.1,0-0.3-0.1-0.4-0.1l-7.2-4.1c0.1-0.3,0.3-0.7,0.5-0.9c0.3-0.4,0.7-0.7,1.1-0.9
		c1.9-1.2,4.2-1.2,6.1,0c0.9,0.5,1.5,1.1,1.6,1.7s-0.2,1.1-1,1.5c-0.7,0.4-1.5,0.6-2.3,0.5l2.5,1.5c0.2,0.1,0.2,0.2,0.2,0.2
		s-0.1,0.1-0.2,0.2l-0.5,0.3C286.7,321,286.6,321.1,286.4,321.1z M286.3,316.8c-0.1-0.3-0.5-0.7-1.1-1.1c-0.6-0.4-1.2-0.6-1.9-0.6
		c-0.6,0-1.2,0.2-1.8,0.5c-0.3,0.2-0.6,0.4-0.8,0.7l2.4,1.4c0.8,0.5,1.8,0.5,2.6,0C286.2,317.5,286.4,317.2,286.3,316.8z"/>
	<path class="st2" d="M291.5,315.3c-0.7,0.1-1.3,0.1-2,0c-0.7-0.1-1.4-0.4-2-0.7c-1-0.6-1.6-1.2-1.6-1.8s0.4-1.1,1.2-1.6
		c0.8-0.5,1.8-0.7,2.8-0.7c1,0.1,2,0.4,2.9,0.9c0.3,0.2,0.3,0.3,0.1,0.4L289,314c0.5,0.3,1.1,0.5,1.7,0.4c0.6,0,1.2-0.2,1.8-0.5
		c0.5-0.2,0.8-0.6,1-1.1c0,0,0-0.1,0.1-0.1c0.1,0,0.1,0,0.2,0l0.8,0.1l0.2,0.1c0.1,0,0.1,0.1,0.1,0.1c-0.1,0.3-0.3,0.6-0.5,0.8
		c-0.3,0.3-0.6,0.5-1,0.7C292.8,314.9,292.2,315.2,291.5,315.3z M291.1,311.8c-0.5-0.3-1-0.4-1.5-0.5c-0.5,0-1,0.1-1.5,0.4
		c-0.5,0.3-0.7,0.6-0.7,0.9s0.3,0.6,0.8,0.9L291.1,311.8z"/>
	<path class="st2" d="M296.6,312.4c-0.1,0-0.3-0.1-0.4-0.1l-5-2.9c-0.1,0-0.2-0.1-0.2-0.2c0,0,0-0.1,0.1-0.2l0.6-0.3
		c0.1-0.1,0.3-0.1,0.5,0l0.5,0.3c-0.1-0.6,0.2-1.2,1.1-1.7c0.6-0.3,1.2-0.5,1.9-0.5c0.7,0,1.5,0.2,2.1,0.6l3.4,2
		c0.1,0.1,0.2,0.2,0.2,0.2s0,0.1-0.2,0.2l-0.5,0.3c-0.1,0.1-0.3,0.1-0.4,0.1c-0.1,0-0.3-0.1-0.4-0.1l-3.3-1.9
		c-0.3-0.2-0.7-0.3-1.1-0.4c-0.4,0-0.7,0.1-1,0.3c-0.3,0.1-0.5,0.4-0.6,0.8c0,0.3,0.1,0.5,0.5,0.7l3.2,1.8c0.1,0.1,0.2,0.2,0.2,0.2
		s0,0.1-0.2,0.2l-0.5,0.3C296.9,312.4,296.8,312.4,296.6,312.4z"/>
	<path class="st2" d="M300.1,302.5c-0.2,0-0.4-0.1-0.5-0.1l-0.2-0.1c-0.1-0.1-0.2-0.2-0.3-0.3c0-0.1,0-0.2,0.2-0.3l0.4-0.3
		c0.2-0.1,0.4-0.1,0.6-0.1c0.2,0,0.4,0.1,0.5,0.2l0.2,0.1c0.1,0.1,0.2,0.2,0.3,0.3c0,0.1-0.1,0.2-0.2,0.3l-0.5,0.3
		C300.5,302.5,300.3,302.5,300.1,302.5z M307,306.4c-0.1,0-0.3-0.1-0.4-0.1l-4.9-2.8c-0.1-0.1-0.2-0.2-0.2-0.2s0.1-0.1,0.2-0.2
		l0.5-0.3c0.1-0.1,0.3-0.1,0.4-0.1c0.2,0,0.3,0.1,0.4,0.1l4.9,2.8c0.1,0.1,0.2,0.2,0.2,0.2s0,0.2-0.2,0.2l-0.5,0.3
		C307.3,306.4,307.1,306.4,307,306.4L307,306.4z"/>
	<path class="st2" d="M309.6,304.9c-0.1,0-0.3-0.1-0.4-0.1l-5-2.9c-0.1,0-0.2-0.1-0.2-0.2c0,0,0-0.1,0.1-0.2l0.6-0.4
		c0.1-0.1,0.3-0.1,0.5,0l0.5,0.3c-0.1-0.6,0.2-1.2,1.1-1.7c0.6-0.3,1.2-0.5,1.9-0.5c0.7,0,1.5,0.2,2.1,0.6l3.4,2
		c0.1,0.1,0.2,0.2,0.2,0.2s0,0.1-0.2,0.2l-0.5,0.3c-0.1,0.1-0.3,0.1-0.4,0.1c-0.1,0-0.3-0.1-0.4-0.1l-3.3-1.9
		c-0.3-0.2-0.7-0.3-1.1-0.4c-0.4,0-0.7,0.1-1,0.3c-0.3,0.1-0.5,0.4-0.6,0.8c0,0.3,0.1,0.5,0.5,0.7l3.2,1.8c0.1,0.1,0.2,0.2,0.2,0.2
		s0,0.1-0.2,0.2l-0.5,0.3C309.9,304.9,309.8,304.9,309.6,304.9z"/>
	<path class="st2" d="M276,347.6c-0.4,0-0.7-0.2-1.1-0.4l-12.9-7.4c-0.4-0.2-0.6-0.4-0.6-0.6s0.1-0.4,0.5-0.6l1.5-0.9
		c0.2-0.1,0.4-0.2,0.7-0.2c0.3,0,0.6,0,0.8,0l11.8,1.7l-6.7-3.9c-0.4-0.2-0.6-0.4-0.6-0.6s0.1-0.4,0.5-0.6l1.9-1.1
		c0.3-0.2,0.7-0.3,1.1-0.3c0.4,0,0.8,0.1,1.1,0.4l12.9,7.4c0.4,0.2,0.6,0.4,0.6,0.6s-0.2,0.4-0.5,0.6l-1.5,0.9
		c-0.2,0.1-0.4,0.2-0.7,0.3c-0.3,0-0.5,0-0.8,0l-11.8-1.7l6.8,3.9c0.4,0.2,0.6,0.4,0.6,0.6s-0.2,0.4-0.5,0.6l-1.9,1.1
		C276.7,347.5,276.4,347.6,276,347.6z"/>
	<path class="st2" d="M289.4,339.8c-0.4,0-0.7-0.1-1.1-0.4l-12.8-7.5c-0.4-0.2-0.6-0.4-0.6-0.6s0.1-0.4,0.5-0.6l8-4.6
		c0.3-0.2,0.6-0.3,1-0.3c0.4,0,0.7,0.2,1,0.4l1,0.6c0.4,0.2,0.6,0.4,0.7,0.6s-0.1,0.4-0.5,0.6l-5.1,3l2.7,1.6l3.4-1.9
		c0.3-0.2,0.6-0.3,1-0.3c0.4,0,0.7,0.2,1.1,0.4l1,0.6c0.4,0.2,0.6,0.4,0.7,0.6s-0.1,0.4-0.5,0.6l-3.4,2l2.7,1.6l5.1-2.9
		c0.3-0.2,0.6-0.3,1-0.3c0.4,0,0.7,0.2,1,0.4l1,0.6c0.4,0.2,0.6,0.4,0.6,0.6s-0.1,0.4-0.5,0.6l-8,4.6
		C290.1,339.7,289.8,339.8,289.4,339.8z"/>
	<path class="st2" d="M302.9,332.2c-0.3,0-0.6-0.1-0.9-0.2l-16.6-6.2l-0.3-0.1c-0.3-0.2-0.3-0.3,0.1-0.5l2.7-1.6
		c0.4-0.2,0.8-0.3,1.2-0.1l8,3.2l-4-4.1c-0.2-0.2-0.2-0.3-0.2-0.4s0.1-0.2,0.4-0.4l1.3-0.7c0.2-0.1,0.4-0.2,0.6-0.2
		c0.3,0,0.5,0,0.8,0.1l7.1,2.3l-5.7-4.6c-0.2-0.1-0.2-0.2-0.2-0.4s0.1-0.2,0.4-0.4l2.7-1.6c0.3-0.2,0.6-0.2,0.9,0
		c0.1,0,0.2,0.1,0.2,0.1l10.7,9.6c0.2,0.2,0.3,0.4,0.3,0.5s-0.2,0.3-0.4,0.4l-1.8,1c-0.2,0.1-0.5,0.2-0.8,0.2
		c-0.3,0-0.6-0.1-0.9-0.2l-7.3-2.5l4.4,4.2c0.2,0.2,0.3,0.4,0.3,0.5s-0.2,0.3-0.4,0.4l-1.8,1C303.4,332,303.1,332.1,302.9,332.2z"/>
	<path class="st2" d="M326.5,318.5c-0.4,0-0.7-0.2-1.1-0.4l-10.8-6.2l-3,1.7c-0.3,0.2-0.6,0.3-1,0.3c-0.4,0-0.7-0.2-1-0.4l-1-0.6
		c-0.4-0.2-0.6-0.4-0.6-0.6s0.1-0.4,0.5-0.6l9.8-5.7c0.3-0.2,0.6-0.3,1-0.3c0.4,0,0.7,0.2,1,0.4l1,0.6c0.4,0.2,0.6,0.4,0.6,0.6
		c0,0.2-0.1,0.4-0.5,0.6l-3,1.7l10.7,6.2c0.4,0.2,0.6,0.4,0.6,0.6s-0.1,0.4-0.5,0.6l-1.9,1.1C327.1,318.3,326.8,318.4,326.5,318.5z"
		/>
	<path class="st2" d="M332,315.1c-0.1-0.1-0.2-0.2-0.3-0.3l-8.7-10.6c-0.1-0.1-0.2-0.3-0.2-0.5c0-0.1,0.1-0.3,0.4-0.4l1.8-1
		c0.2-0.1,0.5-0.2,0.7-0.2c0.3,0,0.6,0.1,0.9,0.1l18.4,5c0.2,0,0.4,0.1,0.5,0.2c0.1,0.1,0.2,0.2,0.2,0.2c0,0.1-0.1,0.2-0.2,0.2
		l-3,1.7c-0.2,0.1-0.4,0.2-0.5,0.2c-0.2,0-0.4,0-0.7-0.1l-2.8-0.8l-4,2.3l1.5,1.6c0.1,0.1,0.2,0.2,0.2,0.4c0,0.1-0.1,0.2-0.3,0.3
		l-3,1.7C332.5,315.3,332.2,315.2,332,315.1z M334.6,307.5l-4.9-1.5l2.6,2.9L334.6,307.5z"/>
	<path class="st2" d="M347.1,306.5c-0.4,0-0.7-0.2-1.1-0.4l-12.9-7.4c-0.4-0.2-0.6-0.4-0.6-0.6c0-0.2,0.1-0.4,0.5-0.6l5.7-3.3
		c1.3-0.8,2.9-1.3,4.5-1.3c1.5,0,3,0.4,4.3,1.2c0.6,0.3,1,0.7,1.4,1.3c0.2,0.4,0.2,0.9,0,1.3c1.7-0.5,3.6-0.2,5.1,0.8
		c1.3,0.8,2,1.6,2.1,2.6s-0.7,1.9-2.3,2.8l-5.7,3.3C347.8,306.4,347.5,306.5,347.1,306.5z M344,298c0.4-0.2,0.6-0.5,0.6-0.7
		s-0.2-0.5-0.7-0.8c-0.4-0.3-0.9-0.4-1.3-0.4c-0.4,0-0.9,0.1-1.3,0.4l-2.1,1.2l2.7,1.5L344,298z M350.3,301.3
		c0.4-0.2,0.6-0.5,0.5-0.8c-0.1-0.4-0.4-0.7-0.7-0.8c-0.5-0.3-1-0.4-1.5-0.5c-0.5,0-1,0.1-1.4,0.4l-2.4,1.4l3,1.7L350.3,301.3z"/>
</g>
<g id="freepik--Pointer--inject-1--inject-91">
	<path class="st2" d="M255.1,366.8l-33.3,2.6c-0.7,0.1-1.2,0.6-1.2,1.4v2.2c0,0.8,0.5,1.4,1.1,1.8l21.2,10.4
		c0.4,0.2,0.9,0.1,1.1-0.2c0.1-0.1,0.1-0.3,0.1-0.4l0.4-3.4c0.1-0.7,0.7-1.1,1.4-1.1c0,0,0,0,0,0l10.2,1.5c0.7,0.1,1.5-0.2,2-0.8
		l1.6-1.8c0.5-0.6,0.8-1.4,0.8-2.2v-2.2c0-0.7-0.5-1.3-1.2-1.4l-4.8-0.7l0.9-0.5c0.6-0.4,0.9-1.1,0.9-1.8V368c0-0.6-0.4-1.2-1.1-1.2
		C255.2,366.8,255.1,366.8,255.1,366.8z"/>
	<path class="st16" d="M255.1,366.8l-33.3,2.6c-0.7,0.1-1.2,0.6-1.2,1.4v2.2c0,0.8,0.5,1.4,1.1,1.8l21.2,10.4
		c0.4,0.2,0.9,0.1,1.1-0.2c0.1-0.1,0.1-0.3,0.1-0.4l0.4-3.4c0.1-0.7,0.7-1.1,1.4-1.1c0,0,0,0,0,0l10.2,1.5c0.7,0.1,1.5-0.2,2-0.8
		l1.6-1.8c0.5-0.6,0.8-1.4,0.8-2.2v-2.2c0-0.7-0.5-1.3-1.2-1.4l-4.8-0.7l0.9-0.5c0.6-0.4,0.9-1.1,0.9-1.8V368c0-0.6-0.4-1.2-1.1-1.2
		C255.2,366.8,255.1,366.8,255.1,366.8z"/>
	<path class="st2" d="M220.5,370.8v2.2c0,0.8,0.5,1.4,1.1,1.8l21.2,10.4c0.2,0.1,0.4,0.1,0.6,0.1v-5.6l-21.7-10.3
		C221.1,369.5,220.5,370.1,220.5,370.8z"/>
	<path class="st3" d="M220.5,370.8v2.2c0,0.8,0.5,1.4,1.1,1.8l21.2,10.4c0.2,0.1,0.4,0.1,0.6,0.1v-5.6l-21.7-10.3
		C221.1,369.5,220.5,370.1,220.5,370.8z"/>
	<path class="st2" d="M245.2,380.1c0.2-0.1,0.5-0.2,0.7-0.1l10.2,1.5c0.3,0,0.7,0,1-0.1v-5.2l-11.9-1.7V380.1z"/>
	<path class="st3" d="M245.2,380.1c0.2-0.1,0.5-0.2,0.7-0.1l10.2,1.5c0.3,0,0.7,0,1-0.1v-5.2l-11.9-1.7V380.1z"/>
	<path class="st2" d="M255.1,366.8l-33.3,2.6c-0.7,0-0.7,0.3-0.1,0.6l21.2,10.4c0.4,0.2,0.9,0.1,1.1-0.2c0.1-0.1,0.1-0.3,0.1-0.4
		l0.4-3.4c0.1-0.7,0.7-1.1,1.4-1.1c0,0,0,0,0,0l10.2,1.5c0.7,0.1,1.5-0.2,2-0.8l1.5-1.8c0.5-0.5,0.3-1-0.4-1.1l-10.2-1.5
		c-0.7-0.1-0.8-0.5-0.1-0.8l6.3-3.5C255.8,367,255.8,366.8,255.1,366.8z"/>
</g>
</svg>
